<svg xmlns="http://www.w3.org/2000/svg" xmlns:xlink="http://www.w3.org/1999/xlink" width="1920" height="1080" viewBox="0 0 1920 1080">
  <defs>
    <clipPath id="clip-path">
      <rect id="長方形_1571" data-name="長方形 1571" width="1920" height="1080" transform="translate(15525 -15447)" fill="#fff" stroke="#707070" stroke-width="1"/>
    </clipPath>
    <clipPath id="clip-path-2">
      <rect id="長方形_1570" data-name="長方形 1570" width="1304" height="1304" transform="translate(0.183 0.183)" fill="none"/>
    </clipPath>
  </defs>
  <g id="hero" transform="translate(-15525 15447)" clip-path="url(#clip-path)">
    <g id="グループ_423" data-name="グループ 423" transform="translate(15832.817 -15559.184)">
      <rect id="長方形_1568" data-name="長方形 1568" width="1304" height="1304" transform="translate(0.183 0.184)" fill="#97a79d"/>
      <rect id="長方形_1569" data-name="長方形 1569" width="1920" height="1304" transform="translate(-307.817 0.184)" fill="#524a3a"/>
      <g id="グループ_422" data-name="グループ 422" transform="translate(0 0.001)">
        <g id="グループ_421" data-name="グループ 421" clip-path="url(#clip-path-2)">
          <path id="パス_596" data-name="パス 596" d="M1040.8,951.144c-5.62-44.512-18.687-88.368-26.75-132.474-3.107-17-4.672-38.393-8.916-61.142-1.981-10.62,2.857-36.753-29.3-45.857,1.931-1.4,24.6-26.346,25.476-28.023,14.287,1.271,47.132-28.19,54.773-40.125,24.062-37.586,6.233-124.539-16.559-161.135-12.689-20.374-24.429-25.793-44.583-36.94l2.548-16.559c33.552-13.708,83.761-6.729,77.065,38.214,12.606-11.878,15.046-28.575,12.1-45.22-15.359-28.052,14.841,3.668,3.184,32.481,51.141-83.586-55.563-132.379-95.535-49.678-9.233-70.332-77.395-61.221-91.076,8.28,19.906-8.205,33.989-25.743,10.827,7.006-74.815,8.752-141.427,48.153-142.028,131.2-.212,29.369,4.968,34.454,5.095,36.3.8,11.637-13.193,39.06,25.476,57.958,3.547,18.755,5.5,28.608,16.559,44.582,11.112,16.053,30.067,30.213,49.041,35.667,3.262.937,32.039,6.317,33.756,6.368.654,3.794-1.495,6.837-2.548,10.191-3.278,10.442-6.688,20.7-11.464,30.571-2.029.249-.874,2.448-1.911,2.548-5.976.576-51.25.584-56.047,0-1.014-.123-1.753-2.523-1.91-2.548-18.832-40.865-30.472-12.082-35.03-12.738-15.951-26.315-36.847-49.139-65.6-61.142-19.089-43.266-95.309-28.894-126.743-5.1-50.542,38.267-47.3,102.722-66.874,157.314l1.91,1.91a78.993,78.993,0,0,1,12.1-7.643c29.856-14.452,70.5-33.162,96.172-53.5,41.422-32.818,39.861-64.182,63.69-72.606,41.38-14.63,66.112,37.868,69.421,40.762-33.105-.276-44.717,31.614-35.666,58.595,2.962,8.827,5.307,15.121,14.012,20.381l-8.917,51.589c-10.669-3.846-6.15-8.315-16.559-5.733-31.367,7.784-78.083,68.26-81.523,101.267,3.1,2.234,6.047-1.83,6.369-1.911,33.127-8.24,67.627-20.491,84.707-52.225-3.968,29.918-9.807,59.633-15.923,89.165H708.336c-2.289-4.162-5.994-7.317-8.28-11.464-.539,9.446-5.461,16.937-5.732,17.833-4.651-1.1-10.771-4.365-15.285-1.274-1.506-3.4-5.688-4.122-8.917-3.821a15.012,15.012,0,0,0-6.369,2.548c-5.742-16.51-8.6-15.688-11.464,0l-121.011,6.369c1.045-4.475,4.962-38.511,1.911-39.488-15.168,8.445-51.108,31.781-60.506,43.309-7.082-1.759-19.539-1.924-26.75-1.274,29.615-12.282,27.236-57.615,33.119-61.142,16.8-3.228,44.845-4.754,57.321-14.011l104.451,28.66c-63.14-29.3-109.9-77.478-133.748-143.3-7.639-21.081-10.95-40.676-15.285-62.416l1.274-1.274c7.858,5.005,36.478,19.508,43.309,8.28,5.165-8.489-18.5-6.735-30.572-33.756,3.3,1.082,18.555,2.161,22.292,1.274,33.642-7.989-20.942-18.94-27.387-23.565-5.479-20.362-11.37-42.229-29.3-55.41,17.554-6.445,27.651-21.127,38.851-34.392,1.53-1.814,12.139,2.237,9.553-22.292,26.547-20.362,4.53-25.08,3.822-26.749-1.207-2.843,3.712-35.584-11.465-59.868,17.014-14.873,18.525-24.1,16.559-45.857-3.174-3.983-5.872-1.066-7.642-.636-6.646,1.613-8.334,6.8-11.465,8.916-7.893,5.341-11.839,3.362-19.743,16.56-6.533-.884,8.076-17,10.827-19.108a26.8,26.8,0,0,1,10.19-5.095c3.617-2.278,8.749-1.611,11.465-5.732,14.8-33.9-.724-2.919-12.738,1.91-15.852-13.507-17.183-40.376-22.928-47.767-8.855-11.394-31.6,39.54-31.845,49.041-1.322-.2-20.751.023-26.75,0C515.525,294.388,687,172.025,903.864,211.07c89.34,16.085,173.088,67.831,227.372,140.754,82.859,111.309,93.78,218.87,63.69,352.841-17.856,79.5-79.445,208.122-154.129,246.479" transform="translate(-71.439 -34.012)" fill="#f4e4c0"/>
          <path id="パス_597" data-name="パス 597" d="M394.968,1123.768c3.963,9.224,11.15,56.3,11.464,67.512-12.949,3.04-26.408,3.194-39.488,5.094,8.6-24.106,15.238-51.257,28.024-72.606" transform="translate(-61.234 -187.529)" fill="#f4e4c0"/>
          <path id="パス_598" data-name="パス 598" d="M708.858,284.312c22.209-1.7,55.433,2.607,74.517,14.649.092,6.52-40.778-4.46-80.249,61.142-59.551,98.974-39.09,211.268,78.975,247.116C666.515,665.463,554.572,538.227,565.556,426.34c6.749-68.757,74.108-136.73,143.3-142.028" transform="translate(-94.252 -47.386)" fill="#f7b622"/>
          <path id="パス_599" data-name="パス 599" d="M516.735,972.4c23.852,65.824,70.608,114,133.748,143.3l-104.451-28.66c3.861-15.314-31.115,1.408-54.137,0-1.311-.935-.522-26.351-.637-30.571-.546-20.051-.217-45.469-3.821-64.964-.15-.806-2.054-2.951-1.274-8.917l30.571-10.19" transform="translate(-81.097 -162.27)" fill="#97a79d"/>
          <path id="パス_600" data-name="パス 600" d="M792.348,371.475c51.412-5.509,59.533,70.879,12.738,77.7-56.6,8.253-59.339-72.709-12.738-77.7" transform="translate(-126.791 -61.943)" fill="#f7b622"/>
          <path id="パス_601" data-name="パス 601" d="M1022.632,264.593c5.98,37.034-11.571,20.983-33.118,15.285-8.543-2.258-16.01-7.2-12.739,8.28,3.567,16.872,42.653,17.841,12.1,18.471-56.5-30.353,18.308-82.6,33.756-42.036" transform="translate(-161.547 -41.68)" fill="#f6c6b2"/>
          <path id="パス_602" data-name="パス 602" d="M931.7,298.048c20.027-4.531,22.656,24.7,6.369,26.75-17.95,2.257-19.292-23.827-6.369-26.75" transform="translate(-154.046 -49.658)" fill="#f6c6b2"/>
          <path id="パス_603" data-name="パス 603" d="M993.807,282.85c21.549,5.7,39.1,21.748,33.118-15.285,13.4,35.176-32.869,54.876-33.118,15.285" transform="translate(-165.841 -44.651)" fill="#f7a88b"/>
          <path id="パス_604" data-name="パス 604" d="M936.693,948.957c-1.483,3.443-.995,6.667-1.274,10.19-2.412,30.421-5.822,54.3-12.738,84.071-4.876,20.987-11.721,41.17-17.833,61.779.737,1.821,32.817,12.5,36.94,13.375,1.19,13.027.29,26.516,1.274,39.488l-146.487-10.19c13.564-59.569,21.5-120.894,33.119-180.879,22.955,3.7,52.892-7.207,64.963-28.024,8.5,2.705,35.035,9.433,42.035,10.191" transform="translate(-132.928 -156.657)" fill="#cbe7f5"/>
          <path id="パス_605" data-name="パス 605" d="M506.323,539.448c-9.87,16.452-13.675,2.8-36.94-2.547,1.7-16.47,7.54-32.948,19.743-44.583,2.776.6,15.172,41.308,17.2,47.13" transform="translate(-78.328 -82.156)" fill="#cbe7f5"/>
          <path id="パス_606" data-name="パス 606" d="M1049.611,1160.459c2.157,13.267,4.193,26.464,7.643,39.488h-19.107c1.364-11.972.833-27.23,1.274-39.488,2.948-.042,9.682.033,10.19,0" transform="translate(-173.24 -193.65)" fill="#cbe7f5"/>
          <path id="パス_607" data-name="パス 607" d="M454.833,987.693c-.9,10.212,1.233,10.889,1.274,11.464,1.623,23.068,6.268,56.853,6.369,59.868.057,1.717-4.259,5.639-1.911,33.119-32.2-2.913-40.6,10.2-24.839-24.84v-6.368a3.779,3.779,0,0,0-3.822-1.911c-2.025-19.228-2.261-39.186-3.822-58.594-.27-3.357.189-6.819,0-10.19,4.045-.205,21.953-1.961,26.75-2.548" transform="translate(-71.422 -164.822)" fill="#97a79d"/>
          <path id="パス_608" data-name="パス 608" d="M1075.4,463.1c-4.221.6-9.411,3.718-11.464,7.643-28.365-14.431-62.564-6.114-38.852-19.107,17.231-9.442,38.331-3.971,50.316,11.464" transform="translate(-169.734 -74.59)" fill="#cbe7f5"/>
          <path id="パス_609" data-name="パス 609" d="M803.3,403.557c20.918-4.583,22.7,30.661,0,25.476-11.054-2.525-11.3-23,0-25.476" transform="translate(-132.652 -67.276)" fill="#e8efee"/>
          <path id="パス_610" data-name="パス 610" d="M381.2,1096.194c1.173,1.3,2.433,2.409,2.548,2.548,6.078,7.37,13.943,18.863,16.559,28.023,3.223,11.286,3.48,30.961,5.732,43.309,5.328-24.615,5.322-30.706,27.386-43.309,6.644-3.795,26.542-14.611,25.476-5.094-5.884,3.527-3.5,48.859-33.118,61.142-5.237.472-10.495,2.275-15.923,1.273-1.634,2.011-1.722,4.9-1.91,5.1-5.844,6.086-9.592,13.891-7.643,23.566-13.473,12.533-26.912,49.467-40.124,59.231-6.866,5.074-25.451,8.228-26.113,14.011-8.719,3.544-17.879,5.877-26.749,8.917,35.374-23.689,53.657-39.377,75.154-76.428,5.067-8.734,10.93-16.952,15.285-26.113.68-6.533-1.266-5.439-1.274-5.733-.314-11.214-7.5-58.286-11.464-67.511-15.218-35.418-40.047.712-54.773,14.012-4.893.544-3.835,5.226-6.369-1.274,17.895-15.7,25.605-38.652,57.321-35.666" transform="translate(-51.283 -182.884)" fill="#567718"/>
          <path id="パス_611" data-name="パス 611" d="M363.343,1083.025c1.8,1.745,3.4,4.479,5.1,6.369-31.715-2.987-39.427,19.962-57.321,35.666-26.353,23.128-41.382,30.274-70.059,48.4-1.445.472-9.491,6.993-10.19,1.911,11-69.3,53.038-169.422,132.474-92.35" transform="translate(-38.526 -176.084)" fill="#8ba41e"/>
          <path id="パス_612" data-name="パス 612" d="M319.529,1140.331c-26.313,23.764-31.273,32.4-76.428,47.131,28.676-18.13,43.707-25.277,70.058-48.4,2.535,6.5,1.477,1.818,6.369,1.274" transform="translate(-40.567 -190.081)" fill="#567718"/>
          <path id="パス_613" data-name="パス 613" d="M377.877,1242.848c-21.5,37.052-39.78,52.739-75.154,76.428a173.075,173.075,0,0,0-21.018,8.917l-1.91-1.911c26-41.238,19.436-91.624,98.082-83.433" transform="translate(-46.691 -207.253)" fill="#8ba41e"/>
          <path id="パス_614" data-name="パス 614" d="M409.493,1296.519a60.873,60.873,0,0,1,6.369,0c18.366.179,48.438,9.275,45.856,31.844-23.955,26.093-61.883,12.825-76.428-16.559,4.227-10.421,13.823-14.261,24.2-15.285" transform="translate(-64.295 -216.341)" fill="#c67432"/>
          <path id="パス_615" data-name="パス 615" d="M461.3,1331.444c-4.422,38.665-93.225,24.856-76.428-16.559,14.545,29.384,52.473,42.651,76.428,16.559" transform="translate(-63.873 -219.422)" fill="#904714"/>
          <path id="パス_616" data-name="パス 616" d="M413.3,1207.859c-2.672,7.944-6.791,13.839-3.821,22.291.742,2.114,23.742,30.715,27.386,32.482,5.039,2.443,5.258-.125,8.28,0,.23.01,3.6,1.82,3.822,2.548-.757.379-3.088-1.046-2.548,2.548-20.315-.912-23.291-14.117-36.3-26.75l-1.911,40.761a60.758,60.758,0,0,0-6.368,0l.636-43.309c-29.369,46.116-18.812,48.256-63.053,66.238.661-5.784,19.247-8.939,26.113-14.011,13.212-9.764,26.652-46.7,40.124-59.232-1.949-9.674,1.8-17.479,7.643-23.565" transform="translate(-56.641 -201.562)" fill="#6d8b1c"/>
          <path id="パス_617" data-name="パス 617" d="M537.582,1189.248c-1.171,5.019-5.879,14.614-8.917,19.107-9.414,13.928-42.941,39.305-58.595,47.131-.222-.727-3.592-2.539-3.821-2.548,6.468-15.6-11.4-30.263,12.738-59.868,9.4-11.528,45.338-34.865,60.5-43.309,3.052.977-.866,35.012-1.91,39.488" transform="translate(-77.742 -191.867)" fill="#8ba41e"/>
          <path id="パス_618" data-name="パス 618" d="M467.838,1269.769c-.54-3.593,1.79-2.169,2.548-2.548,15.653-7.825,49.179-33.2,58.595-47.13-6.516,28.187-31.383,51.015-61.142,49.678" transform="translate(-78.057 -203.603)" fill="#567718"/>
          <path id="パス_619" data-name="パス 619" d="M452.046,1132.941c-22.064,12.6-22.059,18.694-27.386,43.31-2.253-12.349-2.509-32.024-5.732-43.31Z" transform="translate(-69.908 -189.06)" fill="#c3e3e5"/>
          <path id="パス_620" data-name="パス 620" d="M471.712,1201.419c-24.134,29.605-6.27,44.265-12.738,59.868-3.023-.126-3.242,2.443-8.28,0-3.646-1.767-26.644-30.368-27.387-32.482-2.968-8.452,1.15-14.348,3.822-22.291.189-.2.277-3.084,1.911-5.1,5.428,1,10.686-.8,15.922-1.274,7.211-.65,19.668-.486,26.75,1.274" transform="translate(-70.467 -200.216)" fill="#0f1522"/>
          <path id="パス_621" data-name="パス 621" d="M609.807,1189.512c-.359,1.962-1.558,17.589-1.274,18.47,1.546,4.8,17.279-4.461,26.113-7.007,15.559,3.494,20.859,18.769,14.012,19.107-2.469.122-24.566-11.926-47.768,2.548-1.991,1.242-2.325,2.292-3.821,3.822.27-5.708-14.832,3.977-8.917,12.738-.114.086.4,1.744-2.548,1.274-4.044-7.117,4.737-23.876-3.821-11.464l-49.041-1.274c-5.347,2.06,11.13,21.639,13.375,25.476,9.044,15.457,16.98,31.4,25.476,47.13,3.8,7.047,5.829,15.13,10.827,21.655H730.18c2.6-.991,8.02-17.907,9.554-21.655,3.875-9.466,6.875-19.6,10.191-29.3,14.527-42.486,27.023-43.141-31.845-44.583a46.937,46.937,0,0,0-5.095-3.822c-1.227-1.016-2.262-13.4-25.476-16.559,3.947-16.841,4.9-15.714,5.1-16.559l146.486,10.19c.6,7.861,2.192,15.593,1.274,23.566,1.294,1.719,3.3,2.238,5.1,3.184a10.72,10.72,0,0,1-1.274,2.548c-3.881,4.705-5.367,9.844-8.917,14.649.447,4.826,27.243,16.126,36.941,10.827.72,2.435,5.368,5.94-2.548,7.642-2.462-.782-32.329,1.86-41.4-16.559l-28.66,21.655c-.782-.121-2.672-2.086-7.642-1.274-6.561,1.072-8.41,4.3-6.369,12.738,3.847,15.907,69.963,12.2,83.433,7.643-.134,21.451,104.071,4.821,109.547,1.274,5.907-3.827,3.826-14.094,3.184-20.381-.889-8.709.165-16.193-12.738-22.928-3.185-7.642-3.185-7.642-6.369-15.285.454-.175,2.245.6,5.1-3.184-1.019-7.092.838-14.133,1.274-21.018,31.3,1.588,268.7,34.84,172.6,98.082-82.379,54.213-344.959,71.367-447.1,72.606-113.235,1.375-384.834-13.11-482.768-61.141-113.552-55.692,55.6-97.216,122.921-107,13.079-1.9,26.538-2.054,39.488-5.1.008.294,1.954-.8,1.274,5.733-4.356,9.161-10.218,17.379-15.285,26.113-78.647-8.191-72.085,42.2-98.082,83.433l1.91,1.91a173.069,173.069,0,0,1,21.018-8.916c8.87-3.04,18.03-5.373,26.749-8.917,44.241-17.98,33.683-20.122,63.053-66.237l-.637,43.308c-10.379,1.025-19.975,4.865-24.2,15.286-16.8,41.416,72.005,55.225,76.428,16.559,2.582-22.571-27.489-31.666-45.856-31.845l1.91-40.761c13.012,12.632,15.988,25.837,36.3,26.749,29.759,1.337,54.626-21.491,61.142-49.678,3.037-4.494,7.746-14.088,8.916-19.107l121.011-6.369" transform="translate(-28.957 -198.5)" fill="#0f1522"/>
          <path id="パス_622" data-name="パス 622" d="M573.844,1329.145c-3.047-4.708-9.965.859-14.649,1.274-21.857,1.936-38.3.636-51.589-17.833.547-6.713,5.667-15.533,12.1-17.833,21.754-7.775,59.439,21.9,54.137,34.392" transform="translate(-84.707 -215.848)" fill="#c67432"/>
          <path id="パス_623" data-name="パス 623" d="M573.819,1332.973c-6.22,14.656-69.537,23.919-66.238-16.559,13.285,18.469,29.732,19.769,51.589,17.833,4.684-.415,11.6-5.982,14.649-1.274" transform="translate(-84.682 -219.677)" fill="#904714"/>
          <path id="パス_624" data-name="パス 624" d="M672.6,1220.054a70.853,70.853,0,0,1,10.19,0c10.38,3.236-14.507,11.857-14.648,4.458a35.334,35.334,0,0,1,4.458-4.458" transform="translate(-111.497 -203.566)" fill="#6d8b1c"/>
          <path id="パス_625" data-name="パス 625" d="M679.844,1233.508c-4.122,4.215-5.005,9.825-8.917,12.738-5.914-8.76,9.188-18.447,8.917-12.738" transform="translate(-111.731 -205.556)" fill="#a7aa35"/>
          <path id="パス_626" data-name="パス 626" d="M1054.185,1207.859c.173.654-.117,1.408,1.274,1.274-.562,7.707,3.114,16.442,3.822,24.2-7.05,10.356-3.123,13.315-3.822,17.833-3.06,19.808-16.122,3.834-25.476,18.47-2.138,3.346-1.47,8.235-5.1,13.375-18.737-10.1,21.415-12.3,1.274-44.583,6.512-3.3,8.124-23.61,8.917-30.571Z" transform="translate(-170.172 -201.562)" fill="#0f1522"/>
          <path id="パス_627" data-name="パス 627" d="M751.426,795.815c28.753,12,49.649,34.827,65.6,61.142,4.557.656,16.2-28.127,35.03,12.738-3.277-.5-8.1.6-10.827,0-10-2.218-26.035-12.62-40.125-12.738-3.309-2.893-28.041-55.391-69.421-40.762-23.829,8.425-22.268,39.788-63.69,72.606-25.67,20.337-66.316,39.047-96.172,53.5,5.091-43.752,57.746-137,99.993-152.856,26.125-9.8,54.5-4.112,79.612,6.369" transform="translate(-95.422 -130.895)" fill="#567718"/>
          <path id="パス_628" data-name="パス 628" d="M748.62,792.534c-25.108-10.482-53.487-16.173-79.612-6.369-42.248,15.853-94.9,109.1-99.993,152.856a78.969,78.969,0,0,0-12.1,7.642l-1.91-1.91c19.571-54.592,16.333-119.047,66.874-157.314,31.434-23.8,107.654-38.171,126.742,5.1" transform="translate(-92.616 -127.613)" fill="#8ba41e"/>
          <path id="パス_629" data-name="パス 629" d="M811.2,971.382c-11.624,59.985-19.554,121.31-33.118,180.879-.193.845-1.148-.281-5.1,16.559-.174.742.165,1.792,0,2.548-5.463,25.064-5.241,8.53-9.553,7.642-5.544-1.141-11.848,12.681,1.91,10.191-.223.109-2.8,2.355-3.821,3.184,4.161,1.451,1.577,1.109,1.273,3.184-.758,5.192-2.006,5.945,0,11.464a23.419,23.419,0,0,1,0,2.548c-.811-.048-1.344,4.7-10.19,1.91,5.108-4.084,1.291-21.2-1.274-24.2-3.2-3.738-3.639-.572-3.822-.636-5.76-2.036-4.846-.05-5.1,0-1.141.228-2.216-2.682-3.821-.637,2.086,4.057,1.23,6.835,0,10.827-2.571,8.343-1.33,3.413-3.822,2.548-.961-9.5-4.852-9.681-6.369-11.464-.387-.454,3.42-4.68-8.28-6.369-24.657-3.56-37.407,16.346-33.756,3.822,23.2-14.474,45.3-2.425,47.767-2.547,6.847-.338,1.547-15.613-14.011-19.107-8.834,2.546-24.567,11.8-26.113,7.006-.284-.881.915-16.508,1.274-18.47,2.869-15.688,5.722-16.51,11.464,0-11.612,8.788-4.7,27.549,6.369-2.547,3.229-.3,7.411.421,8.917,3.821-.482.33-3.384,5.711-1.911,6.369,11.9-3.912,14.207,11.648,18.47-.636.838-2.417-1.508-3.684-1.274-4.458.271-.9,5.193-8.387,5.732-17.834,2.286,4.146,5.991,7.3,8.28,11.465.4.722-.861,2.879,1.274,6.369,3.617,12.236-12.154,10.126-12.738,14.648-.48,3.72,9.408,12.274,13.374,12.1,1.68-.073,13.354-8.631,8.28-12.738.539-.063,1.118.128,1.273,0,2.626-2.161.582-5.192,1.274-7.643,1.288-4.565,1.621-8.266,2.548-12.738,6.116-29.532,11.955-59.249,15.923-89.166-17.08,31.735-51.58,43.987-84.707,52.226,26.636-31.949,50.936-65.528,75.154-99.356,10.409-2.583,5.89,1.887,16.559,5.732l8.917-51.589c1.241.751,12.06,4.986,12.738,5.1" transform="translate(-114.434 -161.25)" fill="#567718"/>
          <path id="パス_630" data-name="パス 630" d="M774.13,1021.329c-24.217,33.828-48.517,67.407-75.154,99.356-.322.08-3.267,4.144-6.369,1.91,3.44-33.007,50.156-93.483,81.523-101.266" transform="translate(-115.579 -170.435)" fill="#8ba41e"/>
          <path id="パス_631" data-name="パス 631" d="M779.75,1184.925c-.927,4.472-1.26,8.173-2.549,12.738-3.094,6.886-8.539-1.589-11.464-6.369-2.135-3.49-.876-5.646-1.274-6.369Z" transform="translate(-127.567 -197.735)" fill="#2a1d17"/>
          <path id="パス_632" data-name="パス 632" d="M795.257,1283.792c9.753-.038,19.557-.648,29.3,0-3.317,9.7-6.316,19.831-10.191,29.3H646.223c-8.5-15.733-16.432-31.674-25.476-47.131,12.666,1.52,23.837,15.107,37.577,17.833,16.976,3.367,108.188.114,136.933,0" transform="translate(-103.587 -211.257)" fill="#af6124"/>
          <path id="パス_633" data-name="パス 633" d="M819.467,1322.529c-1.534,3.747-6.957,20.664-9.554,21.654H662.154c-5-6.524-7.023-14.608-10.828-21.654Z" transform="translate(-108.69 -220.698)" fill="#904714"/>
          <path id="パス_634" data-name="パス 634" d="M827.367,1278.434c-9.741-.648-19.544-.038-29.3,0l3.185-3.822c-30.645-1.978-118.545,2.648-135.022,0-11.521-1.851-40.193-19.734-23.566-30.571,2.654,8.615,12.933,9.813,20.381,11.464,1.79.4,3.285,1,5.1,1.274,6.283.95,14,.838,20.381,1.274,8.409.575,17.035-.328,25.476,0,4.232.165,8.5-.082,12.738,0,4.9.095,9.206,0,14.011,0h1.274c12.851-.018,25.808,1.9,38.851,1.274,6.583-.318,7.825-3.786,8.28-3.822s6.8,0,8.916,0c4.125,0,9.511,2.61,14.012,1.274,4.324,4.712,7.2,13.229,8.916,7.006,2.868-10.423-19.378-24.509-25.475-29.934,58.868,1.442,46.372,2.1,31.845,44.583" transform="translate(-106.4 -205.899)" fill="#904714"/>
          <path id="パス_635" data-name="パス 635" d="M653.522,1236.654c-5.141,7.456-2.041,10.095,1.274,16.559-13.786-8.293,2.18-12.151-17.833-8.916-16.628,10.837,12.044,28.72,23.565,30.571,16.478,2.647,104.377-1.979,135.022,0l-3.184,3.822c-28.745.114-119.957,3.367-136.933,0-13.739-2.726-24.91-16.314-37.576-17.833-2.245-3.837-18.722-23.416-13.375-25.476l49.041,1.274" transform="translate(-100.695 -206.154)" fill="#904714"/>
          <path id="パス_636" data-name="パス 636" d="M661.514,1254.771c.233.141,2.509,1.962,2.548,2.548-7.449-1.651-17.727-2.85-20.381-11.465,20.013-3.234,4.046.624,17.833,8.917" transform="translate(-107.414 -207.712)" fill="#cc8d2f"/>
          <path id="パス_637" data-name="パス 637" d="M758.6,1262.086c-4.806,0-9.111.1-14.011,0,2.356-5.782,11.006-5.058,14.011,0" transform="translate(-124.253 -209.932)" fill="#ceac45"/>
          <path id="パス_638" data-name="パス 638" d="M744.122,1192.055c-.234.775,2.112,2.041,1.274,4.458-4.262,12.285-6.568-3.275-18.47.637-1.473-.657,1.429-6.039,1.911-6.369,4.515-3.092,10.635.171,15.285,1.274" transform="translate(-121.236 -198.496)" fill="#2a1d17"/>
          <path id="パス_639" data-name="パス 639" d="M716.119,1186.454c-11.07,30.1-17.981,11.336-6.369,2.548a14.988,14.988,0,0,1,6.369-2.548" transform="translate(-117.436 -197.99)" fill="#2a1d17"/>
          <path id="パス_640" data-name="パス 640" d="M725.465,1230.959c-13,8.784-5.15,19.2,1.91,6.369,1.179,9.242,3.631,4.808,4.459,5.095,2.491.865,1.251,5.8,3.822-2.547,8.521.846,10.53-4.952,3.821-10.191.25-.05-.665-2.036,5.1,0,4.943,5.886,3.925,18.794,2.548,26.75h-1.274c-3.005-5.058-11.655-5.782-14.011,0-4.239-.082-8.506.164-12.738,0,5.062-18.207-19.394-15.1-24.2-6.369-6.323-1.75-7.3-1.792-10.827-7.643-5.367,16.022-6.611,10-8.279,10.191a14.1,14.1,0,0,1-7.643-6.369c2.951.47,2.434-1.189,2.548-1.274,3.911-2.913,4.794-8.523,8.916-12.738,1.5-1.53,1.83-2.579,3.822-3.822-3.651,12.524,9.1-7.38,33.756-3.822,11.7,1.69,7.893,5.915,8.279,6.369" transform="translate(-111.496 -204.282)" fill="#2e1a06"/>
          <path id="パス_641" data-name="パス 641" d="M666.831,1247.482a14.109,14.109,0,0,0,7.643,6.37,10.461,10.461,0,0,0-2.548,2.547c-1.81-.273-3.307-.876-5.1-1.273-.039-.586-2.314-2.408-2.548-2.548-3.315-6.464-6.415-9.1-1.274-16.559,8.559-12.414-.222,4.345,3.821,11.463" transform="translate(-110.184 -205.519)" fill="#a7aa35"/>
          <path id="パス_642" data-name="パス 642" d="M774.906,1198.939c-.691,2.45,1.352,5.482-1.274,7.643-10.785-13.124-10.873,1.131-1.274,0,5.074,4.106-6.6,12.665-8.28,12.738-3.967.172-13.855-8.381-13.375-12.1.584-4.522,16.355-2.413,12.738-14.649,2.924,4.78,8.369,13.255,11.464,6.369" transform="translate(-125.271 -199.01)" fill="#381904"/>
          <path id="パス_643" data-name="パス 643" d="M775.166,1253.483c.486.029-4.409,1.527,7.643,1.274.925-.02,14.631,2.874,18.469,1.274,2.2-.92,7.767-27,8.28-1.274-.454.036-1.7,3.5-8.28,3.822-13.043.631-26-1.292-38.85-1.274,1.376-7.957,2.4-20.864-2.548-26.75.182.065.626-3.1,3.822.637,2.564,3,6.381,20.117,1.274,24.2,8.846,2.787,9.379-1.959,10.19-1.91" transform="translate(-126.805 -205.151)" fill="#8ba41e"/>
          <path id="パス_644" data-name="パス 644" d="M741.917,1243.787c-.827-.287-3.279,4.147-4.458-5.1-7.062,12.828-14.914,2.415-1.911-6.368,1.518,1.783,5.409,1.96,6.369,11.464" transform="translate(-121.579 -205.644)" fill="#8ba41e"/>
          <path id="パス_645" data-name="パス 645" d="M753,1230.519c6.709,5.239,4.7,11.037-3.822,10.191,1.231-3.992,2.087-6.772,0-10.827,1.6-2.045,2.681.865,3.822.636" transform="translate(-125.019 -205.115)" fill="#8ba41e"/>
          <path id="パス_646" data-name="パス 646" d="M776.568,1208.268c-.156.128-.735-.063-1.274,0-9.6,1.131-9.511-13.123,1.274,0" transform="translate(-128.206 -200.697)" fill="#f0dc68"/>
          <path id="パス_647" data-name="パス 647" d="M724.175,1260.232c-8.441-.328-17.067.575-25.476,0a8.851,8.851,0,0,1,1.274-6.369c4.808-8.733,29.264-11.838,24.2,6.369" transform="translate(-116.576 -208.078)" fill="#e9b96d"/>
          <path id="パス_648" data-name="パス 648" d="M695.915,1253.725a8.85,8.85,0,0,0-1.274,6.369c-6.378-.436-14.1-.325-20.381-1.274a10.449,10.449,0,0,1,2.548-2.548c1.67-.191,2.913,5.831,8.28-10.191,3.524,5.851,4.5,5.893,10.827,7.643" transform="translate(-112.517 -207.94)" fill="#8ba41e"/>
          <path id="パス_649" data-name="パス 649" d="M812.745,1226.458a46.849,46.849,0,0,1,5.1,3.821c6.1,5.425,28.343,19.511,25.475,29.934-1.712,6.223-4.592-2.294-8.916-7.006-5.727-6.241-13.426-17.745-14.012-1.274-2.115,0-8.472-.035-8.917,0-.513-25.723-6.075.354-8.28,1.274-3.838,1.6-17.545-1.294-18.47-1.274.927-5.3-2.15-3.682-7.642-3.822-2.007-5.519-.759-6.273,0-11.465,2.632,2.269,4.725-1.21,6.368-1.273,2.074-.081,4.89,2.274,8.28,1.273,7.867-2.32,3.2-10.972-10.827-7.642-1.773.421-1.193,1.234-1.274,1.274-13.759,2.49-7.455-11.331-1.911-10.191,4.312.887,4.091,17.421,9.553-7.642,21.7,2.784,23.043,21.2,25.476,14.011" transform="translate(-128.717 -202.327)" fill="#2a1d17"/>
          <path id="パス_650" data-name="パス 650" d="M815.925,1225.947c-2.434,7.186-3.775-11.227-25.476-14.011.165-.756-.174-1.805,0-2.548,23.215,3.161,24.25,15.543,25.476,16.559" transform="translate(-131.897 -201.817)" fill="#6d4815"/>
          <path id="パス_651" data-name="パス 651" d="M785.753,1259.052c-12.052.254-7.157-1.245-7.643-1.274a23.419,23.419,0,0,0,0-2.548c5.494.14,8.57-1.477,7.643,3.822" transform="translate(-129.75 -209.446)" fill="#f1e994"/>
          <path id="パス_652" data-name="パス 652" d="M784.341,1238.691c-1.644.064-3.737,3.542-6.369,1.274.3-2.075,2.888-1.733-1.274-3.184,1.017-.83,3.6-3.076,3.822-3.185.081-.039-.5-.853,1.274-1.274Z" transform="translate(-129.611 -205.644)" fill="#c2b83c"/>
          <path id="パス_653" data-name="パス 653" d="M844.224,1259.418c-4.5,1.336-9.888-1.271-14.011-1.274.586-16.472,8.285-4.967,14.011,1.274" transform="translate(-138.541 -208.538)" fill="#e79a2d"/>
          <path id="パス_654" data-name="パス 654" d="M785.362,1238.54l-2.548-6.369c14.025-3.33,18.695,5.322,10.827,7.643-3.389,1-6.206-1.355-8.28-1.274" transform="translate(-130.632 -205.493)" fill="#97710d"/>
          <path id="パス_655" data-name="パス 655" d="M827.541,1244.554c1.189.009,3.091,4.172,1.274,5.1-4.326,2.2-3.652-5.114-1.274-5.1" transform="translate(-137.782 -207.685)" fill="#f0dc68"/>
          <path id="パス_656" data-name="パス 656" d="M326.513,723.174c-13.209,10.213-29.333,4.286-28.024-13.375-38.648-9.817-16.664-26.367,5.1-40.124,1.826,18.5,10.315,39.591,22.928,53.5" transform="translate(-46.278 -111.753)" fill="#b96051"/>
          <path id="パス_657" data-name="パス 657" d="M411.281,1007.569c3.184,27.387,3.184,27.387,6.369,54.773-2.833.057-7.017-.422-8.917,0-1.895-17.812-3.551-35.655-5.1-53.5a66.383,66.383,0,0,0,7.643-1.274" transform="translate(-67.357 -168.139)" fill="#b96051"/>
          <path id="パス_658" data-name="パス 658" d="M423.779,990.751c.189,3.371-.27,6.833,0,10.19-7.446.675-11.471,3.429-12.738,3.822a66.415,66.415,0,0,1-7.643,1.274c-.477-5.5-2.449-10.99,0-15.285,6.732.063,13.67.341,20.381,0" transform="translate(-67.116 -165.332)" fill="#b54c40"/>
          <path id="パス_659" data-name="パス 659" d="M476.753,1073.058c.115,4.221-.674,29.635.636,30.571,23.023,1.408,58-15.314,54.137,0-12.476,9.259-40.518,10.784-57.321,14.012,1.065-9.517-18.832,1.3-25.476,5.094H415.611c-2.616-9.16-10.482-20.652-16.559-28.023,14.838-6.221,12.807-5.48,0-15.285.959-.627,7.712-6.1,8.917-6.369,1.9-.422,6.083.057,8.916,0,3.394-.067,6.795.047,10.191,0a3.777,3.777,0,0,1,3.821,1.91v6.369c-15.757,35.044-7.365,21.926,24.84,24.839-2.348-27.479,1.968-31.4,1.91-33.118,5.12.925,6.044-1.275,6.369-1.274.64,0,4.093,2.2,12.738,1.274" transform="translate(-66.592 -178.854)" fill="#c8ac69"/>
          <path id="パス_660" data-name="パス 660" d="M397.517,1096.243c-.115-.139-1.375-1.243-2.548-2.548-1.7-1.889-3.3-4.624-5.1-6.369-.38-3,5.065-4.684,7.643-6.368,12.807,9.805,14.838,9.064,0,15.285" transform="translate(-65.057 -180.385)" fill="#b49556"/>
          <path id="パス_661" data-name="パス 661" d="M516.738,862.061c12.073,27.021,35.736,25.267,30.571,33.756-6.831,11.228-35.45-3.274-43.308-8.28a31.485,31.485,0,0,1-2.548-3.822c-1.9-10.162-5.544-23.394-6.369-33.118-.109-1.282-3.6-4.816.637-5.1,6.09,3.657,15.274,14.678,21.017,16.559" transform="translate(-82.374 -141.094)" fill="#b96051"/>
          <path id="パス_662" data-name="パス 662" d="M514.982,531.345a5.566,5.566,0,0,1,1.274,3.822,26.792,26.792,0,0,0-10.191,5.1c.474-2.989-1.226-2.414-1.273-2.548-2.025-5.823-14.421-46.528-17.2-47.131-12.2,11.635-18.046,28.113-19.744,44.583-6.448-1.482-7.244-2.487-7.642-2.548.241-9.5,22.989-60.435,31.845-49.041,5.745,7.391,7.077,34.26,22.928,47.767" transform="translate(-76.797 -80.422)" fill="#90514c"/>
          <path id="パス_663" data-name="パス 663" d="M403.7,784.344c.988,1.085,9.543,4.539,11.464,5.1-3.858,8.707,14.4,4.351,19.744,15.285,3.219.813,21.768-16.865,32.482,8.28,4.927,11.565,2.607,27.551,6.368,27.386.826,9.725,4.47,22.957,6.369,33.118.542,2.9,1.1,4.236,1.274,5.1,4.336,21.74,7.646,41.336,15.285,62.416l-30.571,10.19c-7.4-1.634-14.608,1.687-21.655,2.548-4.8.586-22.705,2.343-26.75,2.548-6.711.341-13.649.063-20.381,0-8.7-.082-17.409.06-26.113,0-2.043-.9-2.708-14.742-3.184-17.833-6.053-39.224-1.382-131.061,35.666-154.129" transform="translate(-61.046 -130.888)" fill="#df8891"/>
          <path id="パス_664" data-name="パス 664" d="M401.5,782.553c-37.048,23.068-41.72,114.905-35.666,154.129-24.478,5.944-7.657-62.748-6.369-78.975,10.948-4.23.952-9.84,7.643-13.375-2.109-10.66,7.455-33.623,12.738-43.308,5.856-10.737,14.986-15.865,7.643-17.2,3.584-2.854,10.152-4.591,10.19-10.191.4.091.866-.084,1.274,0,.049,2.294,1.248,7.491,2.548,8.917" transform="translate(-58.845 -129.097)" fill="#cd676d"/>
          <path id="パス_665" data-name="パス 665" d="M360.318,859.754c.147-1.86-2.618-.979-2.548-1.91,2.027-26.939-3.147-45.125,30.572-71.97,7.343,1.331-1.787,6.459-7.643,17.2-5.284,9.687-14.848,32.648-12.738,43.309-6.691,3.535,3.305,9.144-7.643,13.375" transform="translate(-59.703 -131.143)" fill="#df8891"/>
          <path id="パス_666" data-name="パス 666" d="M505.187,849.807c-5.743-1.881-14.927-12.9-21.017-16.559-4.239.279-.747,3.813-.637,5.1-3.762.163-1.441-15.823-6.369-27.387-10.713-25.144-29.262-7.466-32.481-8.28-5.34-10.935-23.6-6.578-19.744-15.285,13.751,3.985,43.5,1.94,44.583-15.285.38-.131.9.137,1.274,0,17.927,13.181,23.819,35.049,29.3,55.41,6.444,4.625,61.028,15.576,27.387,23.565-3.737.887-18.989-.192-22.291-1.274" transform="translate(-70.823 -128.839)" fill="#d17c7b"/>
          <path id="パス_667" data-name="パス 667" d="M505.567,895.192l-1.274,1.274c-.171-.859-.732-2.2-1.274-5.1a31.527,31.527,0,0,0,2.548,3.822" transform="translate(-83.941 -148.748)" fill="#f5cac8"/>
          <path id="パス_668" data-name="パス 668" d="M466.82,772.113c-1.086,17.226-30.832,19.27-44.583,15.285-1.92-.556-10.477-4.011-11.464-5.095-1.3-1.427-2.5-6.624-2.548-8.917,18.894,3.926,40.044,5.105,58.595-1.274" transform="translate(-68.122 -128.847)" fill="#b54c40"/>
          <path id="パス_669" data-name="パス 669" d="M481.819,984.546c-.78,5.965,1.125,8.11,1.274,8.917-3.517,1.321-7.85,3.128-11.464,3.821-3.243.622-6.948-.417-10.191,1.274-.041-.575-2.174-1.252-1.274-11.464,7.047-.861,14.257-4.181,21.655-2.548" transform="translate(-76.753 -164.222)" fill="#b54c40"/>
          <path id="パス_670" data-name="パス 670" d="M489.255,1060.3c-8.645.931-12.1-1.273-12.738-1.274l-2.548-59.868c3.614-.693,7.946-2.5,11.464-3.822,3.6,19.5,3.276,44.913,3.822,64.964" transform="translate(-79.094 -166.097)" fill="#d17c7b"/>
          <path id="パス_671" data-name="パス 671" d="M429.372,1061.576c-3.4.048-6.8-.067-10.191,0C416,1034.19,416,1034.19,412.813,1006.8c1.266-.392,5.291-3.147,12.738-3.821,1.56,19.408,1.8,39.366,3.822,58.594" transform="translate(-68.888 -167.373)" fill="#d17c7b"/>
          <path id="パス_672" data-name="パス 672" d="M471.929,999.924l2.548,59.869c-.325,0-1.248,2.2-6.369,1.274-.1-3.017-4.745-36.8-6.368-59.868,3.242-1.692,6.947-.652,10.19-1.274" transform="translate(-77.053 -166.863)" fill="#b96051"/>
          <path id="パス_673" data-name="パス 673" d="M314.114,537.97l-15.923-15.285-1.91,1.91,5.1,28.024,16.559-4.458c2.027,3.733,4.28,7.753,6.368,11.464-1.867-9.084-31.609-6.4-9.553,15.285,3.13-4.987,10.744-9.5,9.553-15.285,6.182,10.978,8.5-2.413,23.566-12.738,2.9-1.988,12.019.075,12.1-8.917.847,1.7,1.734,3.382,2.548,5.1-11.511,3.606-24.68,10.526-9.553,21.655,7.561,5.563,22.606,2.5,18.47,10.827-3.86,7.773-29.918-14.043-31.208-19.744-3.463,5.513-24.2,18.4-22.291,24.839,2.739,9.248,18.1-3.86,21.017-3.184,6.771,1.567,3.692,13.754,0,14.011-6.942.486.189-6.228-2.548-7.642-.456-.237-3.575,3.578-9.553,3.821-3.907.159-7.747.167-11.464-1.273-.084-.033.422-.321-1.274-1.274,10.678,1.782-4.714-11.613-7.643-17.2a20.481,20.481,0,0,1-2.547-10.191c-.157-.376-3.587-1.658-5.1-6.368-8.02-25.03-5.438-45.168,15.285-13.375" transform="translate(-49.165 -87.047)" fill="#edf1f9"/>
          <path id="パス_674" data-name="パス 674" d="M385.134,524.4a151.519,151.519,0,0,0-15.285,2.548c-5.766-10.676-15.7-27.9-19.107-38.851-.946-3.04,1.869-5.337,1.274-7.642-5.711-22.131-27.672,40.008-22.928,57.321,3.823,13.953,7.675-29.407,15.923-43.946,4.793,9.633,8.564,19.663,13.374,29.3-.083,8.992-9.2,6.929-12.1,8.917-15.068,10.325-17.383,23.716-23.565,12.738-2.089-3.711-4.341-7.731-6.369-11.464-1.026-1.89-3.04-8.993-3.821-10.191-20.723-31.793-23.306-11.655-15.285,13.375,1.509,4.711,4.938,5.993,5.095,6.369a20.5,20.5,0,0,0,2.548,10.19c2.929,5.583,18.321,18.979,7.643,17.2-18.161-10.215-30.47-64.3-26.75-84.707,14.928,8.879,27.756,21.906,35.03,37.576,1.048-39.191,11.89-59.561,34.392-90.439,5.473,31.888,15.882,62.522,29.934,91.713" transform="translate(-47.578 -72.206)" fill="#cbe7f5"/>
          <path id="パス_675" data-name="パス 675" d="M378.522,535.576c-8.674,1.808-8.487,1.139-8.917,1.274-.813-1.714-1.7-3.4-2.547-5.1-4.811-9.633-8.581-19.664-13.375-29.3-8.248,14.539-12.1,57.9-15.923,43.946-4.744-17.312,17.217-79.452,22.928-57.321.595,2.305-2.219,4.6-1.274,7.642,3.405,10.952,13.342,28.175,19.107,38.851" transform="translate(-56.253 -80.831)" fill="#90514c"/>
          <path id="パス_676" data-name="パス 676" d="M314.446,538.182c.781,1.2,2.8,8.3,3.822,10.191l-16.559,4.458-5.1-28.024,1.91-1.91Z" transform="translate(-49.497 -87.259)" fill="#d17c7b"/>
          <path id="パス_677" data-name="パス 677" d="M326.713,566.254c1.19,5.788-6.423,10.3-9.553,15.285-22.055-21.686,7.686-24.37,9.553-15.285" transform="translate(-51.573 -93.676)" fill="#d17c7b"/>
          <path id="パス_678" data-name="パス 678" d="M329.157,600.617c3.356,4.752-3.728,1.06-6.369,3.184-4.87,3.919-12.458,42.988-14.012,51.589-1.041-13.734-.155-47.8,8.917-56.047,3.717,1.44,7.556,1.432,11.464,1.274" transform="translate(-51.47 -100.016)" fill="#cd676d"/>
          <path id="パス_679" data-name="パス 679" d="M527.227,541.547a5.563,5.563,0,0,0-1.274-3.822c12.015-4.83,27.542-35.807,12.738-1.91-2.716,4.122-7.846,3.455-11.464,5.732" transform="translate(-87.768 -86.802)" fill="#d17c7b"/>
          <path id="パス_680" data-name="パス 680" d="M408.2,542.719c6,.023,25.428-.2,26.75,0,.4.061,1.193,1.066,7.642,2.548,23.265,5.347,27.071,19,36.94,2.548.047.134,1.748-.441,1.274,2.548-2.75,2.111-17.359,18.223-10.827,19.107,7.9-13.2,11.85-11.219,19.744-16.559,3.145,4.335,9.06-2.634,11.464,1.273-6.779.178-9.231,5.585-1.274,6.369-.068.413.064.859,0,1.274-24.756-.984-13.732,34.017-2.548,15.923,7.811-12.637-14.036,9.242-6.368-8.917,4.945-11.711,8.228-.208,8.916.637,8.567,10.5,9.184-24.7,1.274-25.476,1.771-.43,4.468-3.347,7.643.636,1.966,21.76.454,30.984-16.559,45.857,15.177,24.284,10.257,57.026,11.464,59.868.709,1.669,22.726,6.387-3.822,26.75,2.587,24.528-8.022,20.478-9.553,22.291-11.2,13.265-21.3,27.947-38.85,34.392-.373.138-.894-.131-1.274,0-18.55,6.379-39.7,5.2-58.595,1.274-.407-.084-.87.09-1.274,0-20.237-4.522-44.571-17.656-58.595-33.118-12.613-13.908-21.1-35-22.928-53.5-.083-.836.064-1.708,0-2.548,1.554-8.6,9.142-47.671,14.012-51.589,2.641-2.125,9.725,1.567,6.369-3.184,5.978-.243,9.1-4.058,9.553-3.822,2.736,1.415-4.395,8.128,2.548,7.642,3.692-.257,6.771-12.444,0-14.012-2.92-.676-18.278,12.433-21.017,3.184-1.908-6.439,18.827-19.326,22.291-24.839,1.29,5.7,27.347,27.517,31.208,19.744,4.136-8.33-10.908-5.265-18.47-10.827-15.126-11.129-1.957-18.049,9.553-21.655.43-.135.242.534,8.917-1.274a151.523,151.523,0,0,1,15.285-2.548c6.08-.588,12.955-.024,19.107,0" transform="translate(-51.533 -90.522)" fill="#d17c7b"/>
          <path id="パス_681" data-name="パス 681" d="M536.144,569.777c.249-2.457-.365-5.263,0-7.643.063-.415-.068-.861,0-1.274.433-2.6,4.076-1.813,1.274-6.368-2.4-3.908-8.319,3.061-11.465-1.274,3.131-2.118,4.819-7.3,11.465-8.917,7.91.776,7.293,35.981-1.274,25.476" transform="translate(-87.768 -90.831)" fill="#d17c7b"/>
          <path id="パス_682" data-name="パス 682" d="M483.569,593.167c8.454-2.736,2.812,14.071,19.107,12.738,4.574-.374,12.079-5.287,12.738-5.095,8.265,2.411-6.411,10.289-21.655,8.916-1.63,3.06-5.44,19.8-7.642,20.381-8.255,2.162,3.608-16.992,1.91-26.113-.88-4.727-9.8-9.1-4.458-10.827" transform="translate(-80.413 -98.935)" fill="#edf1f9"/>
          <path id="パス_683" data-name="パス 683" d="M415.01,727.774c8.734,23.012,39.156,25.937,48.4,2.548,6.382,8.073-14.507,20.025-25.476,19.107-7.57-.634-26.658-12.033-22.928-21.655" transform="translate(-69.175 -121.448)" fill="#b05352"/>
          <path id="パス_684" data-name="パス 684" d="M535.194,565.7c-.365,2.38.249,5.185,0,7.643-.689-.845-3.971-12.348-8.917-.637-7.666,18.159,14.181-3.72,6.369,8.917-11.185,18.095-22.209-16.907,2.548-15.923" transform="translate(-86.818 -94.399)" fill="#f8ecf1"/>
          <path id="パス_685" data-name="パス 685" d="M441.195,622.26c8.087-1,9.417,7.341,11.464,7.643,3.06.452,4.86-7.092,8.28-1.911-14.026,18.334-7.979-5.542-26.749,1.274-1.3-2.534,6.514-6.945,7.006-7.006" transform="translate(-72.431 -103.826)" fill="#f8ecf1"/>
          <path id="パス_686" data-name="パス 686" d="M381.921,683.433c7.332-.432,8,11.856,1.274,12.738-7.722,1.012-9.447-12.256-1.274-12.738" transform="translate(-62.836 -114.047)" fill="#2a1d17"/>
          <path id="パス_687" data-name="パス 687" d="M383.6,614.557c12.175-3.337,2.389,16.535-3.822,11.464-2.447-2,1.071-10.71,3.822-11.464" transform="translate(-63.237 -102.491)" fill="#edf1f9"/>
          <path id="パス_688" data-name="パス 688" d="M495.458,681.844c7.784-2.412,7.154,10.037,2.548,11.464-7.784,2.412-7.154-10.037-2.548-11.464" transform="translate(-82.112 -113.732)" fill="#1a1a1d"/>
          <path id="パス_689" data-name="パス 689" d="M440.895,678.848c6.092,38.067-2.911,52.548-.636.636l.636-.636" transform="translate(-73.405 -113.283)" fill="#b54c40"/>
          <path id="パス_690" data-name="パス 690" d="M365.186,600.865c2.818-.761,2.281,10.953,1.91,12.1-2.748,8.522-12.818-2.273-1.91-12.1" transform="translate(-60.112 -100.264)" fill="#edf1f9"/>
          <path id="パス_691" data-name="パス 691" d="M399.245,590.116c6.617-1.953,10.067,7.292,6.369,8.917-7.515,3.3-12.718-7.043-6.369-8.917" transform="translate(-66.148 -98.431)" fill="#edf1f9"/>
          <path id="パス_692" data-name="パス 692" d="M426.952,605.455c13.963-.637-9.222,13.134-9.553,5.732-.025-.557,9-5.707,9.553-5.732" transform="translate(-69.653 -101.032)" fill="#fdfbf9"/>
          <path id="パス_693" data-name="パス 693" d="M465.514,608.517c9.387.729,10.894,9.422,7.643,10.191-.62.146-9.413-8.275-7.643-10.191" transform="translate(-77.643 -101.547)" fill="#f8ecf1"/>
          <path id="パス_694" data-name="パス 694" d="M538.462,556.533c2.8,4.556-.841,3.765-1.274,6.369-7.957-.785-5.506-6.191,1.274-6.369" transform="translate(-88.813 -92.872)" fill="#f8ecf1"/>
          <path id="パス_695" data-name="パス 695" d="M497.037,585.567c4.895-.979,17.841,7.127,8.917,10.191-8.647,2.967-16.7-8.634-8.917-10.191" transform="translate(-82.417 -97.703)" fill="#edf1f9"/>
          <path id="パス_696" data-name="パス 696" d="M502.1,590.143c1.9-.761,2.8,1.938,1.274,2.548-1.9.761-2.8-1.938-1.274-2.548" transform="translate(-83.659 -98.458)" fill="#c3948d"/>
          <path id="パス_697" data-name="パス 697" d="M839.292,871.494c3.3,2.886,13.7,4.267,15.923,6.369,9.436,8.905-7.209,24.154,12.1,38.214-19.856,10.206-41.9,12.064-63.69,14.011-9.052-26.981,2.561-58.87,35.666-58.595" transform="translate(-133.61 -145.431)" fill="#c67432"/>
          <path id="パス_698" data-name="パス 698" d="M895.933,936.471c-12.071,20.816-42.008,31.722-64.964,28.024-.677-.109-11.5-4.345-12.738-5.1-8.705-5.26-11.051-11.554-14.012-20.381,21.786-1.948,43.834-3.806,63.689-14.012,4.666,3.4,21.788,9.48,28.024,11.464" transform="translate(-134.204 -154.361)" fill="#af6124"/>
          <path id="パス_699" data-name="パス 699" d="M1084.777,466.287c5.49-.784,17.124.671,20.38,6.369l-2.547,16.559c-1.46-.807-17.76-4.311-29.3-15.285,2.053-3.925,7.243-7.04,11.464-7.643" transform="translate(-179.109 -77.78)" fill="#cf5d7d"/>
          <path id="パス_700" data-name="パス 700" d="M1117.371,1201.48c-.435,6.885-2.292,13.927-1.274,21.017-2.849,3.781-4.641,3.009-5.1,3.185-7.427,2.867-35.3,4.159-44.582,1.274-.708-7.761-4.384-16.5-3.822-24.2,1.739-23.82,38.008-23.383,54.773-33.118.079,10.237.635,21.787,0,31.844" transform="translate(-177.311 -195.183)" fill="#fca676"/>
          <path id="パス_701" data-name="パス 701" d="M1113.049,1143.613c3.948-1.617,2.453,9.422,2.548,21.654-16.765,9.736-53.034,9.3-54.773,33.118-1.391.135-1.1-.619-1.274-1.274-3.45-13.023-5.486-26.221-7.643-39.488,16.257-1.047,45.964-7.854,61.142-14.011" transform="translate(-175.537 -190.815)" fill="#f38767"/>
          <path id="パス_702" data-name="パス 702" d="M1028.195,1159.441c-.441,12.258.09,27.516-1.275,39.488-.793,6.961-2.4,27.269-8.916,30.571-11.873,6.022-27.921-4.566-37.577-10.19-1.664-.969-1.81,1.327-1.911,1.274-1.79-.946-3.8-1.465-5.095-3.184.917-7.974-.679-15.7-1.274-23.566-.983-12.972-.084-26.461-1.274-39.488,14.433,3.048,42.538,5.3,57.321,5.1" transform="translate(-162.014 -192.632)" fill="#f38767"/>
          <path id="パス_703" data-name="パス 703" d="M1007.385,1242.465c20.141,32.281-20.011,34.481-1.274,44.583-1.77,2.509-2.674,4.552-6.369,3.822-20.53.2-64.612,4.023-74.516,2.547-6.935-1.033-11.142-5.029-17.2-7.642-2.041-8.44-.192-11.666,6.369-12.739-4.247,9.083,28.9,14.865,37.577,15.286,9.223.447,42.544-1.061,43.946-11.464.6-4.486,2.887-5.509-3.822-7.642,7.916-1.7,3.268-5.208,2.548-7.643-3.779-12.783-16.58-19.918-28.024-25.476a10.694,10.694,0,0,0,1.274-2.548c.1.054.247-2.242,1.91-1.273,9.656,5.625,25.7,16.212,37.577,10.19" transform="translate(-151.395 -205.596)" fill="#ad2861"/>
          <path id="パス_704" data-name="パス 704" d="M995.064,1273.344c6.708,2.134,4.426,3.157,3.822,7.643-12.166,2.117-36.94,6.181-49.041,5.094-1-.089-.27-2.433-1.274-2.548-4.982-.57-6.583,1.451-7.643,1.274-.846-.141-7.049-5-15.922-6.368l28.66-21.655c9.069,18.419,38.937,15.776,41.4,16.559" transform="translate(-154.36 -209.726)" fill="#cb3d6e"/>
          <path id="パス_705" data-name="パス 705" d="M1004.756,1262.385c-9.7,5.3-36.493-6-36.94-10.827,3.55-4.8,5.036-9.943,8.916-14.649,11.444,5.558,24.246,12.693,28.024,25.476" transform="translate(-161.504 -206.41)" fill="#05577d"/>
          <path id="パス_706" data-name="パス 706" d="M923.4,1282.483c8.873,1.366,15.076,6.228,15.923,6.369,1.06.177,2.661-1.844,7.642-1.274,1,.115.276,2.458,1.274,2.548,12.1,1.086,36.875-2.979,49.041-5.1-1.4,10.4-34.724,11.911-43.946,11.464-8.68-.421-41.824-6.2-37.577-15.285,4.971-.812,6.861,1.153,7.643,1.274" transform="translate(-152.754 -213.769)" fill="#ad2861"/>
          <path id="パス_707" data-name="パス 707" d="M1123.972,1074.3c.68,5.385,1.106,10.66,2.548,15.923-.521,1.913-30.627,18.216-34.392,19.743-15.179,6.157-44.885,12.964-61.142,14.012-.509.033-7.242-.041-10.191,0-14.783.208-42.887-2.047-57.321-5.094-4.122-.871-36.2-11.555-36.94-13.375,6.112-20.61,12.957-40.792,17.833-61.779,50.045-.711,100.219-7.446,114.641-63.053a202.342,202.342,0,0,0,38.214-38.85c8.063,44.107,21.13,87.962,26.75,132.474" transform="translate(-154.615 -157.167)" fill="#117092"/>
          <path id="パス_708" data-name="パス 708" d="M1100.8,929.578a202.4,202.4,0,0,1-38.214,38.851c-14.422,55.606-64.6,62.342-114.641,63.053,6.916-29.766,10.326-53.65,12.738-84.071,51.533,2.685,58.944,5.394,94.261-30.571,14.181-14.441,27.544-30.417,36.94-48.4,4.244,22.749,5.81,44.146,8.917,61.142" transform="translate(-158.187 -144.921)" fill="#023a53"/>
          <path id="パス_709" data-name="パス 709" d="M1074.828,813.394c32.155,9.1,27.317,35.237,29.3,45.857-9.4,17.987-22.759,33.962-36.94,48.4-5.186-.793-9.476-5.794-13.374-8.916-.091-.072-1.319,1.78-1.912,1.274-6.9-5.894-20.582-28.024-30.57-34.393,4.161-3.061,26.477-31.823,25.474-39.488,5.3-1.642,24.707-10.336,28.025-12.738" transform="translate(-170.434 -135.736)" fill="#117092"/>
          <path id="パス_710" data-name="パス 710" d="M1016.735,868.172a8.058,8.058,0,0,1-3.822,1.274l-19.107-22.928c1.053-3.353,3.2-6.4,2.548-10.19,7.339.221,36.563-4.766,45.857-7.643,1,7.665-21.315,36.427-25.476,39.488" transform="translate(-165.841 -138.287)" fill="#023a53"/>
          <path id="パス_711" data-name="パス 711" d="M1010.619,873.016c-16.746,9.868-27.665,7.286-30.572,7.643,4.776-9.873,8.185-20.129,11.464-30.572l19.108,22.928" transform="translate(-163.545 -141.859)" fill="#05577d"/>
          <path id="パス_712" data-name="パス 712" d="M1057.49,924.749c-35.318,35.964-42.728,33.256-94.261,30.571.279-3.523-.209-6.747,1.274-10.19,29.9,3.238,59.151-2,77.7-28.024.592.507,1.821-1.346,1.91-1.274,3.9,3.123,8.189,8.124,13.375,8.917" transform="translate(-160.739 -152.83)" fill="#06283c"/>
          <path id="パス_713" data-name="パス 713" d="M1066.376,459.409c-3.257-5.7-14.891-7.153-20.381-6.369-11.985-15.434-33.085-20.906-50.316-11.464-23.712,12.993,10.487,4.676,38.852,19.107,11.537,10.976,27.836,14.478,29.3,15.285,20.154,11.147,31.894,16.566,44.583,36.94,3.132,36.068-30.869,109.635-58.595,80.887-11.657-12.088-14.035-36.754-15.923-37.577-10.006-4.361,6.757,33.447,5.1,34.392-29.643,2.382-36.186-15.676-38.214-16.559-9.646-4.2,14.295,22.352-8.917,15.285-12.153-3.7-20.035-22.359-24.2-33.118-6.185-.294,6.364,27.648,3.183,29.934-22.874,6.332-16.638-5.136-24.2-5.732A115.667,115.667,0,0,1,939,562.586c-.956-9.553-.956-9.553-1.911-19.107-23.663,26.738-60.384,45.147-96.172,38.214.6-83.048,67.212-122.449,142.029-131.2,23.16-32.748,9.078-15.211-10.828-7.006,13.681-69.5,81.844-78.611,91.077-8.28,39.971-82.7,146.674-33.908,95.534,49.678,11.657-28.813-18.543-60.534-3.185-32.482,2.946,16.644.506,33.342-12.1,45.22,6.7-44.943-43.512-51.921-77.064-38.214" transform="translate(-140.327 -64.532)" fill="#521a21"/>
          <path id="パス_714" data-name="パス 714" d="M1091.373,739.446c2.622-5.006,5.879-16.573,5.1-22.291l5.094-4.459c71.042-32.042,28.7-103.311,3.185-22.928-5.239,1.183-15.4-46.083-42.035-49.678-14.009-1.891-64.508,18.7-94.9-34.392,7.564.6,1.328,12.064,24.2,5.732,3.181-2.286-9.369-30.227-3.184-29.934,4.167,10.76,12.048,29.419,24.2,33.118,23.212,7.067-.73-19.485,8.916-15.285,2.028.883,8.571,18.941,38.214,16.559,1.661-.946-15.1-38.753-5.1-34.392,1.889.823,4.266,25.49,15.923,37.577,27.725,28.749,61.727-44.818,58.595-80.886,22.793,36.6,40.622,123.548,16.559,161.135-7.641,11.935-40.486,41.4-54.773,40.124" transform="translate(-161.504 -89.81)" fill="#521a21"/>
          <path id="パス_715" data-name="パス 715" d="M938.995,593.987a22.274,22.274,0,0,1-1.274-9.553h-2.548c-4.466,19.663-13.057,38.11-26.749,52.863-14.69,6.229-23.3,10.628-41.4,6.368l-.637,2.548a293.535,293.535,0,0,0,5.095,61.142c-38.669-18.9-24.674-46.32-25.475-57.957-.127-1.85-5.308-6.934-5.1-36.3,35.789,6.934,72.509-11.475,96.172-38.214.955,9.553.955,9.553,1.91,19.107" transform="translate(-140.326 -95.934)" fill="#521a21"/>
          <path id="パス_716" data-name="パス 716" d="M862.638,692.606c.287-.222,5.555,4.141,5.732,4.458,10.112,18.105-15.388,3-5.732-4.458" transform="translate(-143.581 -115.578)" fill="#d1d8ea"/>
          <path id="パス_717" data-name="パス 717" d="M1109.984,1255.234c12.9,6.735,11.849,14.219,12.738,22.928-24.889,19.485-69.1,19.124-99.993,19.107-.946-.523-4.2-2.55-4.458-2.548,3.694.731,4.6-1.313,6.368-3.821,3.626-5.14,2.958-10.03,5.1-13.375,9.354-14.635,22.416,1.338,25.476-18.469,4.152,1,7.25,2.667,11.464,3.822,6.978,1.911,26.657,6,32.482,3.821,4.08-1.525,2.929-7.317,3.184-7.642,1.226-1.562,5.184-4.541,7.643-3.822" transform="translate(-169.924 -209.449)" fill="#cf5d7d"/>
          <path id="パス_718" data-name="パス 718" d="M1104.351,1282.777c.642,6.287,2.724,16.554-3.184,20.381-5.476,3.547-109.681,20.177-109.547-1.274-13.47,4.555-79.586,8.264-83.433-7.643,6.054,2.614,10.262,6.61,17.2,7.643,9.9,1.475,53.987-2.348,74.516-2.548.257,0,3.512,2.024,4.459,2.548,30.9.017,75.1.378,99.992-19.107" transform="translate(-151.553 -214.064)" fill="#ad2861"/>
          <path id="パス_719" data-name="パス 719" d="M1110.919,1236.909c3.184,7.643,3.184,7.643,6.369,15.285-2.459-.719-6.418,2.26-7.643,3.822-21.089-19.307-59.455-19.348-35.666,3.822-4.214-1.155-7.313-2.821-11.464-3.822.7-4.518-3.228-7.477,3.821-17.833,9.283,2.885,37.156,1.594,44.583-1.274" transform="translate(-177.228 -206.41)" fill="#ad2861"/>
          <path id="パス_720" data-name="パス 720" d="M1110.529,1257.029c-.256.326.9,6.118-3.184,7.643-5.826,2.177-25.5-1.911-32.482-3.822-23.788-23.17,14.577-23.129,35.666-3.822" transform="translate(-178.112 -207.423)" fill="#05577d"/>
          <path id="パス_721" data-name="パス 721" d="M897.981,884.232c.157.024.9,2.424,1.91,2.548,4.8.584,50.071.576,56.048,0,1.036-.1-.119-2.3,1.91-2.548,2.908-.357,13.826,2.224,30.571-7.643a8.056,8.056,0,0,0,3.822-1.274c9.989,6.369,23.672,28.5,30.571,34.393-18.55,26.024-47.8,31.261-77.7,28.023-7-.758-33.534-7.486-42.035-10.19-6.236-1.984-23.358-8.067-28.024-11.465-19.309-14.059-2.664-29.308-12.1-38.214-2.226-2.1-12.622-3.482-15.922-6.368,14.089.117,30.119,10.52,40.124,12.738,2.726.6,7.551-.5,10.827,0" transform="translate(-141.348 -145.431)" fill="#fca676"/>
          <path id="パス_722" data-name="パス 722" d="M895.679,730.545c7.33,2.559,8.741-1.411,10.191-1.274,26.091,2.481,21.55,35.75-12.739,36.94-11.058-15.974-13.012-25.827-16.559-44.583a293.526,293.526,0,0,1-5.1-61.141c4.141-1.137,2.084,11.194,3.822,19.743,1.632,8.034,14.595,48.295,20.381,50.315" transform="translate(-145.415 -110.207)" fill="#f38767"/>
          <path id="パス_723" data-name="パス 723" d="M1085.49,725.708l-5.1,4.458c.785,5.718-2.474,17.285-5.095,22.292-.879,1.677-23.546,26.625-25.476,28.023-3.317,2.4-22.72,11.1-28.024,12.739-9.293,2.877-38.518,7.864-45.856,7.642-1.717-.052-30.494-5.431-33.756-6.368-18.974-5.454-37.93-19.614-49.041-35.667,34.288-1.19,38.829-34.459,12.738-36.94,4.876-15.456-16.924-14.525-10.19,1.274-5.786-2.02-18.749-42.28-20.381-50.315-1.737-8.549.32-20.881-3.822-19.743l.637-2.548c18.1,4.259,26.708-.14,41.4-6.369.528-.224.715,3.353,10.827-3.822,7.694-5.458,13.822-16.53,19.107-24.2,5.891,11.139,10.931,23.138,19.743,32.481,37.46,39.719,65.422,6.568,84.707,19.744,2.83,1.933,32.78,48.789,37.578,57.321" transform="translate(-145.43 -102.823)" fill="#fca676"/>
          <path id="パス_724" data-name="パス 724" d="M1071.073,750.679c52.552,3.017,6.664,46.333-8.28,48.4-21.225,2.942-32.974-26.06-21.018-40.761,6.2-7.619,20.244-8.163,29.3-7.643" transform="translate(-173.048 -125.246)" fill="#f38767"/>
          <path id="パス_725" data-name="パス 725" d="M1071.753,748.68c-9.054-.52-23.1.024-29.3,7.643-7.969-20.438,20.581-23.6,29.3-7.643" transform="translate(-173.727 -123.247)" fill="#2a1d17"/>
          <path id="パス_726" data-name="パス 726" d="M1044.345,681.865c5.473-.976,26.016,1.487,27.386,8.28,2.334,11.567-12.856-5.918-37.576,1.911-3.638-2.563,5.27-9.313,10.19-10.191" transform="translate(-172.432 -113.752)" fill="#2e1a06"/>
          <path id="パス_727" data-name="パス 727" d="M995.71,785.873c6.438,29.894-33.031,21.038-32.482,4.458.432-13.062,17.541,34.229,32.482-4.458" transform="translate(-160.737 -131.143)" fill="#b54c40"/>
          <path id="パス_728" data-name="パス 728" d="M903.059,674.26c9.718,1.373-15.669,27.508-21.017,15.923-3.689-7.99,6.979-5.073,8.279-5.732C895.149,682,901.209,674,903.059,674.26" transform="translate(-147.062 -112.517)" fill="#2c120a"/>
          <path id="パス_729" data-name="パス 729" d="M977.063,743.046c1.271-.654,3.034,2.66,3.184,3.184,7.162,24.966-14.781,31.112-3.184-3.184" transform="translate(-162.471 -123.982)" fill="#db6041"/>
          <path id="パス_730" data-name="パス 730" d="M910.472,740.84c-1.45-.137-2.86,3.833-10.191,1.274-6.733-15.8,15.066-16.73,10.191-1.274" transform="translate(-150.017 -121.776)" fill="#1a1a1d"/>
          <path id="パス_731" data-name="パス 731" d="M952.519,595.9a115.711,115.711,0,0,0,7.643,17.833c30.39,53.1,80.889,32.5,94.9,34.392,26.633,3.6,36.8,50.861,42.035,49.678,25.514-80.383,67.856-9.114-3.184,22.928-4.8-8.532-34.747-55.388-37.577-57.321-19.285-13.177-47.247,19.974-84.707-19.744-8.813-9.343-13.852-21.343-19.743-32.482-5.284,7.672-11.414,18.745-19.107,24.2-10.113,7.174-10.3,3.6-10.827,3.822,13.692-14.752,22.284-33.2,26.749-52.863h2.548a22.274,22.274,0,0,0,1.274,9.553" transform="translate(-153.85 -97.847)" fill="#f38767"/>
          <path id="パス_732" data-name="パス 732" d="M1154.439,695.666c10.346,10.09-13.1,33.562-10.827,18.47.159-1.059,10.146-13.717,10.827-18.47" transform="translate(-190.814 -116.09)" fill="#712923"/>
        </g>
      </g>
    </g>
  </g>
</svg>
