<svg xmlns="http://www.w3.org/2000/svg" width="364.947" height="776.411" viewBox="0 0 364.947 776.411">
  <g id="グループ_426" data-name="グループ 426" transform="translate(-667.05 -322.176)">
    <g id="グループ_425" data-name="グループ 425" transform="translate(0 0.001)">
      <g id="グループ_429" data-name="グループ 429">
        <path id="パス_747" data-name="パス 747" d="M1049.611,1160.459c2.157,13.267,4.193,26.464,7.643,39.488h-19.107c1.364-11.972.833-27.23,1.274-39.488,2.948-.042,9.682.033,10.19,0" transform="translate(-173.24 -193.65)" fill="#cbe7f5"/>
        <path id="パス_838" data-name="パス 838" d="M839.292,871.494c3.3,2.886,13.7,4.267,15.923,6.369,9.436,8.905-7.209,24.154,12.1,38.214-19.856,10.206-41.9,12.064-63.69,14.011-9.052-26.981,2.561-58.87,35.666-58.595" transform="translate(-133.61 -145.431)" fill="#c67432"/>
        <path id="パス_839" data-name="パス 839" d="M895.933,936.471c-12.071,20.816-42.008,31.722-64.964,28.024-.677-.109-11.5-4.345-12.738-5.1-8.705-5.26-11.051-11.554-14.012-20.381,21.786-1.948,43.834-3.806,63.689-14.012,4.666,3.4,21.788,9.48,28.024,11.464" transform="translate(-134.204 -154.361)" fill="#af6124"/>
        <path id="パス_840" data-name="パス 840" d="M1084.777,466.287c5.49-.784,17.124.671,20.38,6.369l-2.547,16.559c-1.46-.807-17.76-4.311-29.3-15.285,2.053-3.925,7.243-7.04,11.464-7.643" transform="translate(-179.109 -77.78)" fill="#cf5d7d"/>
        <path id="パス_841" data-name="パス 841" d="M1117.371,1201.48c-.435,6.885-2.292,13.927-1.274,21.017-2.849,3.781-4.641,3.009-5.1,3.185-7.427,2.867-35.3,4.159-44.582,1.274-.708-7.761-4.384-16.5-3.822-24.2,1.739-23.82,38.008-23.383,54.773-33.118.079,10.237.635,21.787,0,31.844" transform="translate(-177.311 -195.183)" fill="#fca676"/>
        <path id="パス_842" data-name="パス 842" d="M1113.049,1143.613c3.948-1.617,2.453,9.422,2.548,21.654-16.765,9.736-53.034,9.3-54.773,33.118-1.391.135-1.1-.619-1.274-1.274-3.45-13.023-5.486-26.221-7.643-39.488,16.257-1.047,45.964-7.854,61.142-14.011" transform="translate(-175.537 -190.815)" fill="#f38767"/>
        <path id="パス_843" data-name="パス 843" d="M1028.195,1159.441c-.441,12.258.09,27.516-1.275,39.488-.793,6.961-2.4,27.269-8.916,30.571-11.873,6.022-27.921-4.566-37.577-10.19-1.664-.969-1.81,1.327-1.911,1.274-1.79-.946-3.8-1.465-5.095-3.184.917-7.974-.679-15.7-1.274-23.566-.983-12.972-.084-26.461-1.274-39.488,14.433,3.048,42.538,5.3,57.321,5.1" transform="translate(-162.014 -192.632)" fill="#f38767"/>
        <path id="パス_844" data-name="パス 844" d="M1007.385,1242.465c20.141,32.281-20.011,34.481-1.274,44.583-1.77,2.509-2.674,4.552-6.369,3.822-20.53.2-64.612,4.023-74.516,2.547-6.935-1.033-11.142-5.029-17.2-7.642-2.041-8.44-.192-11.666,6.369-12.739-4.247,9.083,28.9,14.865,37.577,15.286,9.223.447,42.544-1.061,43.946-11.464.6-4.486,2.887-5.509-3.822-7.642,7.916-1.7,3.268-5.208,2.548-7.643-3.779-12.783-16.58-19.918-28.024-25.476a10.694,10.694,0,0,0,1.274-2.548c.1.054.247-2.242,1.91-1.273,9.656,5.625,25.7,16.212,37.577,10.19" transform="translate(-151.395 -205.596)" fill="#ad2861"/>
        <path id="パス_845" data-name="パス 845" d="M995.064,1273.344c6.708,2.134,4.426,3.157,3.822,7.643-12.166,2.117-36.94,6.181-49.041,5.094-1-.089-.27-2.433-1.274-2.548-4.982-.57-6.583,1.451-7.643,1.274-.846-.141-7.049-5-15.922-6.368l28.66-21.655c9.069,18.419,38.937,15.776,41.4,16.559" transform="translate(-154.36 -209.726)" fill="#cb3d6e"/>
        <path id="パス_846" data-name="パス 846" d="M1004.756,1262.385c-9.7,5.3-36.493-6-36.94-10.827,3.55-4.8,5.036-9.943,8.916-14.649,11.444,5.558,24.246,12.693,28.024,25.476" transform="translate(-161.504 -206.41)" fill="#05577d"/>
        <path id="パス_847" data-name="パス 847" d="M923.4,1282.483c8.873,1.366,15.076,6.228,15.923,6.369,1.06.177,2.661-1.844,7.642-1.274,1,.115.276,2.458,1.274,2.548,12.1,1.086,36.875-2.979,49.041-5.1-1.4,10.4-34.724,11.911-43.946,11.464-8.68-.421-41.824-6.2-37.577-15.285,4.971-.812,6.861,1.153,7.643,1.274" transform="translate(-152.754 -213.769)" fill="#ad2861"/>
        <path id="パス_848" data-name="パス 848" d="M1123.972,1074.3c.68,5.385,1.106,10.66,2.548,15.923-.521,1.913-30.627,18.216-34.392,19.743-15.179,6.157-44.885,12.964-61.142,14.012-.509.033-7.242-.041-10.191,0-14.783.208-42.887-2.047-57.321-5.094-4.122-.871-36.2-11.555-36.94-13.375,6.112-20.61,12.957-40.792,17.833-61.779,50.045-.711,100.219-7.446,114.641-63.053a202.342,202.342,0,0,0,38.214-38.85c8.063,44.107,21.13,87.962,26.75,132.474" transform="translate(-154.615 -157.167)" fill="#117092"/>
        <path id="パス_849" data-name="パス 849" d="M1100.8,929.578a202.4,202.4,0,0,1-38.214,38.851c-14.422,55.606-64.6,62.342-114.641,63.053,6.916-29.766,10.326-53.65,12.738-84.071,51.533,2.685,58.944,5.394,94.261-30.571,14.181-14.441,27.544-30.417,36.94-48.4,4.244,22.749,5.81,44.146,8.917,61.142" transform="translate(-158.187 -144.921)" fill="#023a53"/>
        <path id="パス_850" data-name="パス 850" d="M1074.828,813.394c32.155,9.1,27.317,35.237,29.3,45.857-9.4,17.987-22.759,33.962-36.94,48.4-5.186-.793-9.476-5.794-13.374-8.916-.091-.072-1.319,1.78-1.912,1.274-6.9-5.894-20.582-28.024-30.57-34.393,4.161-3.061,26.477-31.823,25.474-39.488,5.3-1.642,24.707-10.336,28.025-12.738" transform="translate(-170.434 -135.736)" fill="#117092"/>
        <path id="パス_851" data-name="パス 851" d="M1016.735,868.172a8.058,8.058,0,0,1-3.822,1.274l-19.107-22.928c1.053-3.353,3.2-6.4,2.548-10.19,7.339.221,36.563-4.766,45.857-7.643,1,7.665-21.315,36.427-25.476,39.488" transform="translate(-165.841 -138.287)" fill="#023a53"/>
        <path id="パス_852" data-name="パス 852" d="M1010.619,873.016c-16.746,9.868-27.665,7.286-30.572,7.643,4.776-9.873,8.185-20.129,11.464-30.572l19.108,22.928" transform="translate(-163.545 -141.859)" fill="#05577d"/>
        <path id="パス_853" data-name="パス 853" d="M1057.49,924.749c-35.318,35.964-42.728,33.256-94.261,30.571.279-3.523-.209-6.747,1.274-10.19,29.9,3.238,59.151-2,77.7-28.024.592.507,1.821-1.346,1.91-1.274,3.9,3.123,8.189,8.124,13.375,8.917" transform="translate(-160.739 -152.83)" fill="#06283c"/>
        <path id="パス_854" data-name="パス 854" d="M1066.376,459.409c-3.257-5.7-14.891-7.153-20.381-6.369-11.985-15.434-33.085-20.906-50.316-11.464-23.712,12.993,10.487,4.676,38.852,19.107,11.537,10.976,27.836,14.478,29.3,15.285,20.154,11.147,31.894,16.566,44.583,36.94,3.132,36.068-30.869,109.635-58.595,80.887-11.657-12.088-14.035-36.754-15.923-37.577-10.006-4.361,6.757,33.447,5.1,34.392-29.643,2.382-36.186-15.676-38.214-16.559-9.646-4.2,14.295,22.352-8.917,15.285-12.153-3.7-20.035-22.359-24.2-33.118-6.185-.294,6.364,27.648,3.183,29.934-22.874,6.332-16.638-5.136-24.2-5.732A115.667,115.667,0,0,1,939,562.586c-.956-9.553-.956-9.553-1.911-19.107-23.663,26.738-60.384,45.147-96.172,38.214.6-83.048,67.212-122.449,142.029-131.2,23.16-32.748,9.078-15.211-10.828-7.006,13.681-69.5,81.844-78.611,91.077-8.28,39.971-82.7,146.674-33.908,95.534,49.678,11.657-28.813-18.543-60.534-3.185-32.482,2.946,16.644.506,33.342-12.1,45.22,6.7-44.943-43.512-51.921-77.064-38.214" transform="translate(-140.327 -64.532)" fill="#521a21"/>
        <path id="パス_855" data-name="パス 855" d="M1091.373,739.446c2.622-5.006,5.879-16.573,5.1-22.291l5.094-4.459c71.042-32.042,28.7-103.311,3.185-22.928-5.239,1.183-15.4-46.083-42.035-49.678-14.009-1.891-64.508,18.7-94.9-34.392,7.564.6,1.328,12.064,24.2,5.732,3.181-2.286-9.369-30.227-3.184-29.934,4.167,10.76,12.048,29.419,24.2,33.118,23.212,7.067-.73-19.485,8.916-15.285,2.028.883,8.571,18.941,38.214,16.559,1.661-.946-15.1-38.753-5.1-34.392,1.889.823,4.266,25.49,15.923,37.577,27.725,28.749,61.727-44.818,58.595-80.886,22.793,36.6,40.622,123.548,16.559,161.135-7.641,11.935-40.486,41.4-54.773,40.124" transform="translate(-161.504 -89.81)" fill="#521a21"/>
        <path id="パス_856" data-name="パス 856" d="M938.995,593.987a22.274,22.274,0,0,1-1.274-9.553h-2.548c-4.466,19.663-13.057,38.11-26.749,52.863-14.69,6.229-23.3,10.628-41.4,6.368l-.637,2.548a293.535,293.535,0,0,0,5.095,61.142c-38.669-18.9-24.674-46.32-25.475-57.957-.127-1.85-5.308-6.934-5.1-36.3,35.789,6.934,72.509-11.475,96.172-38.214.955,9.553.955,9.553,1.91,19.107" transform="translate(-140.326 -95.934)" fill="#521a21"/>
        <path id="パス_857" data-name="パス 857" d="M862.638,692.606c.287-.222,5.555,4.141,5.732,4.458,10.112,18.105-15.388,3-5.732-4.458" transform="translate(-143.581 -115.578)" fill="#d1d8ea"/>
        <path id="パス_858" data-name="パス 858" d="M1109.984,1255.234c12.9,6.735,11.849,14.219,12.738,22.928-24.889,19.485-69.1,19.124-99.993,19.107-.946-.523-4.2-2.55-4.458-2.548,3.694.731,4.6-1.313,6.368-3.821,3.626-5.14,2.958-10.03,5.1-13.375,9.354-14.635,22.416,1.338,25.476-18.469,4.152,1,7.25,2.667,11.464,3.822,6.978,1.911,26.657,6,32.482,3.821,4.08-1.525,2.929-7.317,3.184-7.642,1.226-1.562,5.184-4.541,7.643-3.822" transform="translate(-169.924 -209.449)" fill="#cf5d7d"/>
        <path id="パス_859" data-name="パス 859" d="M1104.351,1282.777c.642,6.287,2.724,16.554-3.184,20.381-5.476,3.547-109.681,20.177-109.547-1.274-13.47,4.555-79.586,8.264-83.433-7.643,6.054,2.614,10.262,6.61,17.2,7.643,9.9,1.475,53.987-2.348,74.516-2.548.257,0,3.512,2.024,4.459,2.548,30.9.017,75.1.378,99.992-19.107" transform="translate(-151.553 -214.064)" fill="#ad2861"/>
        <path id="パス_860" data-name="パス 860" d="M1110.919,1236.909c3.184,7.643,3.184,7.643,6.369,15.285-2.459-.719-6.418,2.26-7.643,3.822-21.089-19.307-59.455-19.348-35.666,3.822-4.214-1.155-7.313-2.821-11.464-3.822.7-4.518-3.228-7.477,3.821-17.833,9.283,2.885,37.156,1.594,44.583-1.274" transform="translate(-177.228 -206.41)" fill="#ad2861"/>
        <path id="パス_861" data-name="パス 861" d="M1110.529,1257.029c-.256.326.9,6.118-3.184,7.643-5.826,2.177-25.5-1.911-32.482-3.822-23.788-23.17,14.577-23.129,35.666-3.822" transform="translate(-178.112 -207.423)" fill="#05577d"/>
        <path id="パス_862" data-name="パス 862" d="M897.981,884.232c.157.024.9,2.424,1.91,2.548,4.8.584,50.071.576,56.048,0,1.036-.1-.119-2.3,1.91-2.548,2.908-.357,13.826,2.224,30.571-7.643a8.056,8.056,0,0,0,3.822-1.274c9.989,6.369,23.672,28.5,30.571,34.393-18.55,26.024-47.8,31.261-77.7,28.023-7-.758-33.534-7.486-42.035-10.19-6.236-1.984-23.358-8.067-28.024-11.465-19.309-14.059-2.664-29.308-12.1-38.214-2.226-2.1-12.622-3.482-15.922-6.368,14.089.117,30.119,10.52,40.124,12.738,2.726.6,7.551-.5,10.827,0" transform="translate(-141.348 -145.431)" fill="#fca676"/>
        <path id="パス_863" data-name="パス 863" d="M895.679,730.545c7.33,2.559,8.741-1.411,10.191-1.274,26.091,2.481,21.55,35.75-12.739,36.94-11.058-15.974-13.012-25.827-16.559-44.583a293.526,293.526,0,0,1-5.1-61.141c4.141-1.137,2.084,11.194,3.822,19.743,1.632,8.034,14.595,48.295,20.381,50.315" transform="translate(-145.415 -110.207)" fill="#f38767"/>
        <path id="パス_864" data-name="パス 864" d="M1085.49,725.708l-5.1,4.458c.785,5.718-2.474,17.285-5.095,22.292-.879,1.677-23.546,26.625-25.476,28.023-3.317,2.4-22.72,11.1-28.024,12.739-9.293,2.877-38.518,7.864-45.856,7.642-1.717-.052-30.494-5.431-33.756-6.368-18.974-5.454-37.93-19.614-49.041-35.667,34.288-1.19,38.829-34.459,12.738-36.94,4.876-15.456-16.924-14.525-10.19,1.274-5.786-2.02-18.749-42.28-20.381-50.315-1.737-8.549.32-20.881-3.822-19.743l.637-2.548c18.1,4.259,26.708-.14,41.4-6.369.528-.224.715,3.353,10.827-3.822,7.694-5.458,13.822-16.53,19.107-24.2,5.891,11.139,10.931,23.138,19.743,32.481,37.46,39.719,65.422,6.568,84.707,19.744,2.83,1.933,32.78,48.789,37.578,57.321" transform="translate(-145.43 -102.823)" fill="#fca676"/>
        <path id="パス_865" data-name="パス 865" d="M1071.073,750.679c52.552,3.017,6.664,46.333-8.28,48.4-21.225,2.942-32.974-26.06-21.018-40.761,6.2-7.619,20.244-8.163,29.3-7.643" transform="translate(-173.048 -125.246)" fill="#f38767"/>
        <path id="パス_866" data-name="パス 866" d="M1071.753,748.68c-9.054-.52-23.1.024-29.3,7.643-7.969-20.438,20.581-23.6,29.3-7.643" transform="translate(-173.727 -123.247)" fill="#2a1d17"/>
        <path id="パス_867" data-name="パス 867" d="M1044.345,681.865c5.473-.976,26.016,1.487,27.386,8.28,2.334,11.567-12.856-5.918-37.576,1.911-3.638-2.563,5.27-9.313,10.19-10.191" transform="translate(-172.432 -113.752)" fill="#2e1a06"/>
        <path id="パス_868" data-name="パス 868" d="M995.71,785.873c6.438,29.894-33.031,21.038-32.482,4.458.432-13.062,17.541,34.229,32.482-4.458" transform="translate(-160.737 -131.143)" fill="#b54c40"/>
        <path id="パス_869" data-name="パス 869" d="M903.059,674.26c9.718,1.373-15.669,27.508-21.017,15.923-3.689-7.99,6.979-5.073,8.279-5.732C895.149,682,901.209,674,903.059,674.26" transform="translate(-147.062 -112.517)" fill="#2c120a"/>
        <path id="パス_870" data-name="パス 870" d="M977.063,743.046c1.271-.654,3.034,2.66,3.184,3.184,7.162,24.966-14.781,31.112-3.184-3.184" transform="translate(-162.471 -123.982)" fill="#db6041"/>
        <path id="パス_871" data-name="パス 871" d="M910.472,740.84c-1.45-.137-2.86,3.833-10.191,1.274-6.733-15.8,15.066-16.73,10.191-1.274" transform="translate(-150.017 -121.776)" fill="#1a1a1d"/>
        <path id="パス_872" data-name="パス 872" d="M952.519,595.9a115.711,115.711,0,0,0,7.643,17.833c30.39,53.1,80.889,32.5,94.9,34.392,26.633,3.6,36.8,50.861,42.035,49.678,25.514-80.383,67.856-9.114-3.184,22.928-4.8-8.532-34.747-55.388-37.577-57.321-19.285-13.177-47.247,19.974-84.707-19.744-8.813-9.343-13.852-21.343-19.743-32.482-5.284,7.672-11.414,18.745-19.107,24.2-10.113,7.174-10.3,3.6-10.827,3.822,13.692-14.752,22.284-33.2,26.749-52.863h2.548a22.274,22.274,0,0,0,1.274,9.553" transform="translate(-153.85 -97.847)" fill="#f38767"/>
        <path id="パス_873" data-name="パス 873" d="M1154.439,695.666c10.346,10.09-13.1,33.562-10.827,18.47.159-1.059,10.146-13.717,10.827-18.47" transform="translate(-190.814 -116.09)" fill="#712923"/>
      </g>
    </g>
  </g>
</svg>
