<svg xmlns="http://www.w3.org/2000/svg" width="1112.3" height="372.654" viewBox="0 0 1112.3 372.654">
  <g id="グループ_428" data-name="グループ 428" transform="translate(-16151.702 14271.562)">
    <path id="パス_733" data-name="パス 733" d="M542.943,1297.04c13.383-1.318,27.938-.13,41.489,0,119.636,1.168,315.521,60.414,298.7,207.433-156.04,169.968-403.1,83.544-497.844-107.864,27.537-67.885,90.044-92.894,157.652-99.568" transform="translate(15780.158 -15551.962)" fill="#c67432"/>
    <path id="パス_734" data-name="パス 734" d="M894.355,1422.75c-28.806,251.863-607.261,161.913-497.843-107.864,94.743,191.4,341.8,277.825,497.843,107.864" transform="translate(15768.944 -15470.24)" fill="#904714"/>
    <path id="パス_735" data-name="パス 735" d="M939.073,1525.841c-19.847-30.667-64.911,5.595-95.422,8.3-142.375,12.611-249.508,4.142-336.046-116.162,3.566-43.73,36.915-101.18,78.826-116.164,141.7-50.648,387.178,142.646,352.641,224.029" transform="translate(16321.638 -15565.034)" fill="#c67432"/>
    <path id="パス_736" data-name="パス 736" d="M939.735,1424.279c-40.517,95.47-452.957,155.807-431.467-107.864,86.538,120.3,193.671,128.773,336.045,116.161,30.51-2.7,75.576-38.964,95.422-8.3" transform="translate(16320.973 -15463.471)" fill="#904714"/>
  </g>
</svg>
