<svg xmlns="http://www.w3.org/2000/svg" width="834.479" height="1913.857" viewBox="0 0 834.479 1913.857">
  <g id="グループ_427" data-name="グループ 427" transform="translate(-17794.857 13256.678)">
    <path id="パス_874" data-name="パス 874" d="M450.905,858.455c-46.611,36.04-103.508,15.125-98.886-47.2-136.375-34.64-58.8-93.039,17.98-141.584,6.444,65.293,36.4,139.7,80.906,188.78" transform="translate(17517.537 -13374.408)" fill="#b96051"/>
    <path id="パス_875" data-name="パス 875" d="M430.608,1007.569c11.236,96.638,11.236,96.638,22.475,193.275-10,.2-24.762-1.49-31.465,0-6.685-62.851-12.53-125.815-17.98-188.78,7.464-1.082,20.564-2.511,26.97-4.495" transform="translate(17762.574 -12718.958)" fill="#b96051"/>
    <path id="パス_876" data-name="パス 876" d="M478.354,990.751c.667,11.895-.953,24.113,0,35.957-26.273,2.381-40.478,12.1-44.947,13.485-6.409,1.984-19.508,3.413-26.969,4.495-1.682-19.417-8.64-38.779,0-53.937,23.753.224,48.236,1.2,71.916,0" transform="translate(17759.777 -12751.581)" fill="#b54c40"/>
    <path id="パス_877" data-name="パス 877" d="M673.233,1076.279c.406,14.893-2.378,104.572,2.246,107.873,81.239,4.968,204.658-54.039,191.029,0-44.024,32.67-142.975,38.053-202.265,49.445,3.76-33.582-66.452,4.586-89.9,17.977H457.484c-9.231-32.323-36.986-72.875-58.432-98.883,52.358-21.952,45.191-19.338,0-53.937,3.384-2.213,27.214-21.531,31.465-22.474,6.7-1.49,21.467.2,31.462,0,11.977-.238,23.977.167,35.96,0,.076.75,7.17-2.661,13.482,6.74v22.475c-55.6,123.657-25.988,77.37,87.65,87.647-8.284-96.965,6.944-110.8,6.741-116.862,18.068,3.263,21.328-4.5,22.475-4.5,2.258,0,14.443,7.779,44.947,4.5" transform="translate(17753.68 -12594.394)" fill="#c8ac69"/>
    <path id="パス_878" data-name="パス 878" d="M416.892,1134.895c-.406-.492-4.851-4.387-8.99-8.99-5.994-6.667-11.63-16.316-17.98-22.475-1.341-10.583,17.871-16.528,26.97-22.472,45.191,34.6,52.358,31.985,0,53.937" transform="translate(17735.842 -12576.598)" fill="#b49556"/>
    <path id="パス_879" data-name="パス 879" d="M575.177,903.934c42.6,95.347,126.1,89.158,107.873,119.113-24.1,39.619-125.092-11.554-152.82-29.216-.685-.435-7.708-10.748-8.99-13.485-6.7-35.857-19.562-82.55-22.475-116.863-.385-4.524-12.709-17,2.249-17.98,21.49,12.9,53.9,51.794,74.163,58.432" transform="translate(17937.135 -13033.337)" fill="#b96051"/>
    <path id="パス_880" data-name="パス 880" d="M653.484,656.31c1.982,1.69,5.477,9.508,4.495,13.485-1.7,1.07-15.551,2.313-35.959,17.98,1.673-10.548-4.327-8.517-4.492-8.99-7.144-20.547-50.885-164.179-60.681-166.308-43.062,41.054-63.676,99.2-69.671,157.318-22.754-5.23-25.562-8.775-26.967-8.99.85-33.526,81.121-213.254,112.369-173.049,20.273,26.082,24.971,120.891,80.906,168.554" transform="translate(17872.309 -13738.604)" fill="#90514c"/>
    <path id="パス_881" data-name="パス 881" d="M499.475,784.344c3.487,3.828,33.676,16.016,40.452,17.98-13.614,30.724,50.826,15.352,69.671,53.937,11.359,2.869,76.811-59.51,114.617,29.216,17.386,40.807,9.2,97.217,22.472,96.637,2.913,34.316,15.772,81.006,22.475,116.863,1.911,10.225,3.89,14.949,4.5,17.98,15.3,76.715,26.982,145.859,53.937,220.245-53.937,17.98-53.937,17.98-107.873,35.957-26.1-5.765-51.547,5.953-76.411,8.99-16.927,2.07-80.119,8.267-94.391,8.99-23.68,1.2-48.163.224-71.917,0-30.709-.288-61.43.212-92.142,0-7.208-3.187-9.554-52.02-11.236-62.927-21.361-138.406-4.877-462.467,125.853-543.867" transform="translate(17689.211 -13151.971)" fill="#df8891"/>
    <path id="パス_882" data-name="パス 882" d="M525.058,805.161c-130.73,81.4-147.214,405.461-125.853,543.867-86.374,20.973-27.02-221.414-22.475-278.676,38.632-14.928,3.36-34.722,26.97-47.2-7.443-37.616,26.305-118.642,44.947-152.821,20.664-37.888,52.881-55.982,26.97-60.681,12.647-10.072,35.824-16.2,35.957-35.96,1.426.321,3.057-.3,4.495,0,.173,8.093,4.4,26.432,8.99,31.465" transform="translate(17663.629 -13172.786)" fill="#cd676d"/>
    <path id="パス_883" data-name="パス 883" d="M366.764,1046.57c.52-6.565-9.237-3.454-8.99-6.741,7.152-95.059-11.1-159.229,107.876-253.956,25.911,4.7-6.306,22.792-26.97,60.678-18.644,34.181-52.393,115.205-44.947,152.823-23.609,12.474,11.662,32.267-26.969,47.2" transform="translate(17673.6 -13149.004)" fill="#df8891"/>
    <path id="パス_884" data-name="パス 884" d="M709.451,1046.38c-20.264-6.638-52.672-45.529-74.162-58.432-14.958.985-2.634,13.456-2.249,17.98-13.273.576-5.086-55.833-22.475-96.64-37.8-88.723-103.255-26.343-114.614-29.216-18.844-38.585-83.288-23.213-69.671-53.937C474.8,840.2,579.768,832.983,583.6,772.2c1.34-.462,3.178.485,4.495,0,63.259,46.51,84.049,123.675,103.378,195.524,22.74,16.319,215.347,54.963,96.638,83.152-13.188,3.131-67-.676-78.658-4.495" transform="translate(17802.865 -13175.785)" fill="#d17c7b"/>
    <path id="パス_885" data-name="パス 885" d="M512.009,904.855c-2.246,2.249-2.246,2.249-4.495,4.495-.6-3.031-2.584-7.755-4.495-17.98,1.282,2.74,8.308,13.05,8.99,13.485" transform="translate(17955.35 -12944.361)" fill="#f5cac8"/>
    <path id="パス_886" data-name="パス 886" d="M614.985,772.113c-3.831,60.783-108.8,68-157.318,53.937-6.776-1.963-36.968-14.152-40.452-17.977-4.586-5.036-8.816-23.375-8.99-31.465,66.672,13.855,141.3,18.015,206.76-4.495" transform="translate(17771.473 -13175.696)" fill="#b54c40"/>
    <path id="パス_887" data-name="パス 887" d="M537.136,985.673c-2.752,21.049,3.969,28.616,4.495,31.465-12.412,4.662-27.7,11.036-40.452,13.482-11.442,2.2-24.518-1.473-35.96,4.495-.144-2.029-7.67-4.418-4.495-40.452,24.865-3.039,50.309-14.755,76.411-8.99" transform="translate(17871.795 -12764.484)" fill="#b54c40"/>
    <path id="パス_888" data-name="パス 888" d="M527.907,1224.571c-30.5,3.285-42.689-4.492-44.947-4.494-4.495-105.627-4.495-105.627-8.99-211.255,12.753-2.446,28.04-8.82,40.452-13.485,12.718,68.792,11.559,158.482,13.485,229.234" transform="translate(17899 -12742.687)" fill="#d17c7b"/>
    <path id="パス_889" data-name="パス 889" d="M471.245,1209.741c-11.983.168-23.983-.238-35.96,0-11.239-96.637-11.239-96.637-22.472-193.275,4.469-1.384,18.671-11.1,44.947-13.484,5.5,68.486,6.338,138.909,13.485,206.759" transform="translate(17780.373 -12727.854)" fill="#d17c7b"/>
    <path id="パス_890" data-name="パス 890" d="M497.7,999.924l8.99,211.255c-1.146,0-4.4,7.758-22.475,4.494-.353-10.645-16.745-129.857-22.472-211.254,11.439-5.971,24.515-2.3,35.957-4.5" transform="translate(17875.281 -12733.785)" fill="#b96051"/>
    <path id="パス_891" data-name="パス 891" d="M363.4,579.3l-56.186-53.937c-3.369,3.372-3.369,3.372-6.741,6.741,8.99,49.442,8.99,49.442,17.98,98.887,29.216-7.867,29.216-7.867,58.432-15.731,7.152,13.173,15.1,27.358,22.472,40.452-6.588-32.056-111.536-22.59-33.711,53.936,11.045-17.6,37.912-33.511,33.711-53.936,21.813,38.738,29.986-8.514,83.156-44.947,10.233-7.015,42.41.264,42.7-31.465,2.99,5.988,6.118,11.933,8.99,17.98-40.619,12.724-87.089,37.142-33.711,76.411,26.682,19.629,79.769,8.811,65.173,38.206-13.62,27.428-105.571-49.553-110.122-69.671-12.221,19.453-85.39,64.926-78.657,87.648,9.666,32.635,63.858-13.62,74.162-11.236,23.892,5.53,13.029,48.533,0,49.442-24.495,1.714.667-21.975-8.99-26.967-1.611-.835-12.615,12.626-33.711,13.482-13.788.561-27.337.588-40.452-4.492-.3-.117,1.488-1.131-4.495-4.494,37.679,6.288-16.634-40.978-26.97-60.681-10.954-20.884-8.276-34.249-8.987-35.96-.556-1.326-12.656-5.85-17.98-22.472-28.3-88.321-19.188-159.381,53.937-47.2" transform="translate(17551.1 -13661.598)" fill="#edf1f9"/>
    <path id="パス_892" data-name="パス 892" d="M483.277,665.044c-30.609,6.379-29.948,4.019-31.465,4.495-2.869-6.047-6-11.991-8.987-17.979-16.977-33.993-30.28-69.389-47.2-103.379-29.1,51.3-42.692,204.3-56.186,155.069C322.705,642.16,400.2,422.892,420.351,500.985c2.1,8.134-7.832,16.242-4.5,26.967,12.015,38.647,47.078,99.418,67.422,137.092" transform="translate(17633.49 -13733.855)" fill="#90514c"/>
    <path id="パス_893" data-name="パス 893" d="M359.54,576.834c2.758,4.228,9.863,29.289,13.485,35.96-29.216,7.864-29.216,7.864-58.432,15.731-8.99-49.445-8.99-49.445-17.98-98.887,3.372-3.369,3.372-3.369,6.741-6.741Z" transform="translate(17554.965 -13659.128)" fill="#d17c7b"/>
    <path id="パス_894" data-name="パス 894" d="M371.366,578.654c4.2,20.426-22.666,36.339-33.711,53.936-77.826-76.523,27.12-85.992,33.711-53.936" transform="translate(17579.1 -13584.537)" fill="#d17c7b"/>
    <path id="パス_895" data-name="パス 895" d="M381.561,603.838c11.841,16.769-13.156,3.739-22.475,11.236C341.9,628.9,315.128,766.762,309.645,797.113c-3.675-48.463-.547-168.663,31.465-197.77,13.115,5.08,26.661,5.053,40.452,4.495" transform="translate(17577.893 -13510.837)" fill="#cd676d"/>
    <path id="パス_896" data-name="パス 896" d="M530.448,595.629c.982-3.978-2.511-11.795-4.495-13.485,42.4-17.042,97.187-126.35,44.947-6.741-9.584,14.544-27.687,12.192-40.452,20.226" transform="translate(17999.84 -13664.438)" fill="#d17c7b"/>
    <path id="パス_897" data-name="パス 897" d="M659.5,543.394c21.17.083,89.726-.711,94.391,0,1.405.215,4.21,3.76,26.967,8.99,82.094,18.868,95.523,67.04,130.348,8.99.167.473,6.168-1.558,4.495,8.99-9.7,7.45-61.254,64.3-38.206,67.422,27.893-46.569,41.816-39.588,69.671-58.431,11.1,15.3,31.97-9.3,40.452,4.492-23.921.629-32.573,19.708-4.495,22.475-.241,1.458.227,3.031,0,4.495-87.356-3.472-48.457,120.035-8.99,56.185,27.564-44.591-49.527,32.612-22.472-31.464,17.448-41.325,29.034-.732,31.462,2.249,30.23,37.068,32.408-87.159,4.495-89.9,6.25-1.517,15.766-11.809,26.97,2.246,6.938,76.785,1.6,109.331-58.432,161.813,53.554,85.69,36.192,201.224,40.451,211.255,2.5,5.888,80.192,22.536-13.485,94.391,9.128,86.551-28.307,72.26-33.711,78.657-39.52,46.808-75.15,98.616-137.089,121.358-1.317.485-3.155-.461-4.495,0-65.458,22.51-140.088,18.354-206.76,4.5-1.438-.3-3.069.318-4.5,0-71.411-15.957-157.277-62.3-206.76-116.864-44.509-49.077-74.462-123.487-80.906-188.78-.291-2.949.226-6.026,0-8.99,5.483-30.354,32.258-168.213,49.442-182.039,9.319-7.5,34.316,5.53,22.475-11.236,21.093-.859,32.1-14.32,33.711-13.485,9.654,4.992-15.507,28.68,8.99,26.967,13.026-.908,23.892-43.912,0-49.442-10.3-2.384-64.5,43.871-74.163,11.236-6.732-22.722,66.434-68.195,78.658-87.647,4.551,20.117,96.5,97.1,110.122,69.671,14.6-29.4-38.491-18.577-65.176-38.206-53.375-39.27-6.906-63.688,33.711-76.411,1.517-.476.855,1.884,31.465-4.5,16.916-3.525,36.945-7.344,53.937-8.99,21.455-2.075,45.714-.085,67.421,0" transform="translate(17578.637 -13621.194)" fill="#d17c7b"/>
    <path id="パス_898" data-name="パス 898" d="M561.912,634.2c.879-8.669-1.287-18.571,0-26.97.224-1.464-.241-3.037,0-4.495,1.529-9.187,14.385-6.4,4.5-22.472-8.482-13.791-29.354,10.8-40.455-4.495,11.048-7.473,17-25.771,40.455-31.465,27.913,2.737,25.735,126.964-4.5,89.9" transform="translate(17999.84 -13617.609)" fill="#d17c7b"/>
    <path id="パス_899" data-name="パス 899" d="M487.849,593.93c29.83-9.654,9.922,49.651,67.422,44.947,16.139-1.321,42.624-18.656,44.947-17.977,29.163,8.508-22.622,36.307-76.411,31.462-5.75,10.8-19.194,69.882-26.967,71.916-29.131,7.629,12.732-59.958,6.741-92.143-3.1-16.68-34.569-32.108-15.731-38.206" transform="translate(17914.34 -13523.4)" fill="#edf1f9"/>
    <path id="パス_900" data-name="パス 900" d="M416.219,727.774c30.818,81.2,138.168,91.522,170.8,8.99,22.519,28.487-51.191,70.661-89.9,67.422-26.711-2.237-94.065-42.46-80.907-76.411" transform="translate(17783.707 -13261.708)" fill="#b05352"/>
    <path id="パス_901" data-name="パス 901" d="M572.954,565.754c-1.288,8.4.879,18.3,0,26.97-2.431-2.981-14.014-43.573-31.465-2.249-27.052,64.076,50.039-13.126,22.475,31.465-39.467,63.85-78.37-59.657,8.99-56.186" transform="translate(17988.805 -13576.131)" fill="#f8ecf1"/>
    <path id="パス_902" data-name="パス 902" d="M459.278,622.47c28.536-3.519,33.228,25.9,40.452,26.97,10.8,1.593,17.148-25.027,29.216-6.744-49.492,64.694-28.155-19.555-94.389,4.5-4.589-8.94,22.986-24.506,24.721-24.721" transform="translate(17821.553 -13466.542)" fill="#f8ecf1"/>
    <path id="パス_903" data-name="パス 903" d="M395.516,683.461c25.87-1.523,28.225,41.836,4.5,44.947-27.249,3.572-33.335-43.248-4.5-44.947" transform="translate(17710.014 -13347.742)" fill="#2a1d17"/>
    <path id="パス_904" data-name="パス 904" d="M395.344,615.518c42.962-11.774,8.431,58.346-13.485,40.452-8.634-7.05,3.781-37.791,13.485-40.452" transform="translate(17714.686 -13482.063)" fill="#edf1f9"/>
    <path id="パス_905" data-name="パス 905" d="M504.057,682.626c27.467-8.511,25.244,35.416,8.99,40.452-27.467,8.511-25.244-35.416-8.99-40.452" transform="translate(17934.088 -13351.4)" fill="#1a1a1d"/>
    <path id="パス_906" data-name="パス 906" d="M443.459,678.848c21.5,134.326-10.272,185.423-2.246,2.246l2.246-2.246" transform="translate(17832.877 -13356.613)" fill="#b54c40"/>
    <path id="パス_907" data-name="パス 907" d="M377.737,600.955c9.945-2.687,8.049,38.65,6.741,42.7-9.7,30.071-45.232-8.02-6.741-42.7" transform="translate(17678.354 -13507.953)" fill="#edf1f9"/>
    <path id="パス_908" data-name="パス 908" d="M406.452,590.8c23.348-6.891,35.525,25.729,22.475,31.465-26.517,11.65-44.879-24.853-22.475-31.465" transform="translate(17748.52 -13529.261)" fill="#edf1f9"/>
    <path id="パス_909" data-name="パス 909" d="M451.11,605.509c49.271-2.249-32.541,46.346-33.711,20.226-.088-1.964,31.747-20.138,33.711-20.226" transform="translate(17789.268 -13499.024)" fill="#fdfbf9"/>
    <path id="パス_910" data-name="パス 910" d="M466.108,608.517c33.123,2.572,38.441,33.246,26.97,35.959-2.187.515-33.214-29.2-26.97-35.959" transform="translate(17882.145 -13493.042)" fill="#f8ecf1"/>
    <path id="パス_911" data-name="パス 911" d="M554.266,556.533c9.89,16.078-2.966,13.285-4.495,22.475-28.078-2.769-19.429-21.845,4.495-22.475" transform="translate(18011.98 -13593.881)" fill="#f8ecf1"/>
    <path id="パス_912" data-name="パス 912" d="M505,585.773c17.271-3.455,62.956,25.15,31.465,35.959C505.956,632.2,477.525,591.267,505,585.773" transform="translate(17937.639 -13537.718)" fill="#edf1f9"/>
    <path id="パス_913" data-name="パス 913" d="M504.054,590.483c6.717-2.687,9.878,6.838,4.495,8.99-6.717,2.687-9.878-6.838-4.495-8.99" transform="translate(17952.072 -13528.943)" fill="#c3948d"/>
  </g>
</svg>
